<mxfile host="Electron" agent="Mozilla/5.0 (Macintosh; Intel Mac OS X 10_15_7) AppleWebKit/537.36 (KHTML, like Gecko) draw.io/24.7.8 Chrome/128.0.6613.36 Electron/32.0.1 Safari/537.36" version="24.7.8">
  <diagram name="Page-1" id="SjPPwkQl0GocmMYLWlOC">
    <mxGraphModel dx="1727" dy="1214" grid="1" gridSize="10" guides="1" tooltips="1" connect="1" arrows="1" fold="1" page="1" pageScale="1" pageWidth="827" pageHeight="1169" math="0" shadow="0">
      <root>
        <mxCell id="0" />
        <mxCell id="1" parent="0" />
        <mxCell id="FvKXWItsj1egY0afTccP-29" value="Events, questions, choices" style="edgeStyle=orthogonalEdgeStyle;rounded=0;orthogonalLoop=1;jettySize=auto;html=1;exitX=0.5;exitY=1;exitDx=0;exitDy=0;entryX=0.5;entryY=0;entryDx=0;entryDy=0;" edge="1" parent="1" source="FvKXWItsj1egY0afTccP-14" target="FvKXWItsj1egY0afTccP-7">
          <mxGeometry relative="1" as="geometry" />
        </mxCell>
        <mxCell id="FvKXWItsj1egY0afTccP-30" value="Registrations" style="edgeStyle=orthogonalEdgeStyle;rounded=0;orthogonalLoop=1;jettySize=auto;html=1;exitX=0.25;exitY=1;exitDx=0;exitDy=0;entryX=0.25;entryY=0;entryDx=0;entryDy=0;" edge="1" parent="1" source="FvKXWItsj1egY0afTccP-14" target="FvKXWItsj1egY0afTccP-7">
          <mxGeometry relative="1" as="geometry" />
        </mxCell>
        <mxCell id="FvKXWItsj1egY0afTccP-31" value="Groups and chats" style="edgeStyle=orthogonalEdgeStyle;rounded=0;orthogonalLoop=1;jettySize=auto;html=1;exitX=0.75;exitY=1;exitDx=0;exitDy=0;entryX=0.75;entryY=0;entryDx=0;entryDy=0;" edge="1" parent="1" source="FvKXWItsj1egY0afTccP-14" target="FvKXWItsj1egY0afTccP-7">
          <mxGeometry relative="1" as="geometry" />
        </mxCell>
        <mxCell id="FvKXWItsj1egY0afTccP-14" value="NextJS / Tailwind / Ethers / Viem" style="rounded=1;whiteSpace=wrap;html=1;fillColor=#dae8fc;gradientColor=#7ea6e0;strokeColor=#6c8ebf;" vertex="1" parent="1">
          <mxGeometry x="169" y="430" width="490" height="70" as="geometry" />
        </mxCell>
        <mxCell id="FvKXWItsj1egY0afTccP-1" value="" style="rounded=1;whiteSpace=wrap;html=1;fillColor=#e1d5e7;strokeColor=#9673a6;" vertex="1" parent="1">
          <mxGeometry x="539" y="620" width="120" height="110" as="geometry" />
        </mxCell>
        <mxCell id="FvKXWItsj1egY0afTccP-2" value="Arbitrum Sepolia Blockchain" style="rounded=1;whiteSpace=wrap;html=1;verticalAlign=bottom;fontSize=20;fillColor=#f0a30a;strokeColor=#BD7000;fontColor=#000000;" vertex="1" parent="1">
          <mxGeometry x="169" y="620" width="350" height="110" as="geometry" />
        </mxCell>
        <mxCell id="FvKXWItsj1egY0afTccP-11" value="mint" style="edgeStyle=orthogonalEdgeStyle;rounded=0;orthogonalLoop=1;jettySize=auto;html=1;entryX=0;entryY=0.5;entryDx=0;entryDy=0;" edge="1" parent="1" source="FvKXWItsj1egY0afTccP-3" target="FvKXWItsj1egY0afTccP-4">
          <mxGeometry relative="1" as="geometry" />
        </mxCell>
        <mxCell id="FvKXWItsj1egY0afTccP-3" value="ERC1155&amp;nbsp;&lt;div&gt;OdzEvents&lt;/div&gt;" style="rounded=1;whiteSpace=wrap;html=1;strokeColor=#36393d;align=center;verticalAlign=middle;fontFamily=Helvetica;fontSize=12;fillColor=#cce5ff;" vertex="1" parent="1">
          <mxGeometry x="299" y="640" width="80" height="40" as="geometry" />
        </mxCell>
        <mxCell id="FvKXWItsj1egY0afTccP-4" value="ERC20&lt;div&gt;OdzCoin&lt;/div&gt;" style="rounded=1;whiteSpace=wrap;html=1;fillColor=#cdeb8b;strokeColor=#36393d;" vertex="1" parent="1">
          <mxGeometry x="424" y="640" width="90" height="40" as="geometry" />
        </mxCell>
        <mxCell id="FvKXWItsj1egY0afTccP-6" value="hooks" style="edgeStyle=orthogonalEdgeStyle;rounded=0;orthogonalLoop=1;jettySize=auto;html=1;entryX=0;entryY=0.5;entryDx=0;entryDy=0;" edge="1" parent="1" source="FvKXWItsj1egY0afTccP-5" target="FvKXWItsj1egY0afTccP-3">
          <mxGeometry relative="1" as="geometry" />
        </mxCell>
        <mxCell id="FvKXWItsj1egY0afTccP-5" value="" style="rounded=1;whiteSpace=wrap;html=1;strokeColor=#36393d;align=center;verticalAlign=middle;fontFamily=Helvetica;fontSize=12;fillColor=#ffcc99;" vertex="1" parent="1">
          <mxGeometry x="174" y="640" width="80" height="40" as="geometry" />
        </mxCell>
        <mxCell id="FvKXWItsj1egY0afTccP-23" value="Attest results" style="edgeStyle=orthogonalEdgeStyle;rounded=0;orthogonalLoop=1;jettySize=auto;html=1;entryX=0.5;entryY=0;entryDx=0;entryDy=0;exitX=0.25;exitY=1;exitDx=0;exitDy=0;" edge="1" parent="1" source="FvKXWItsj1egY0afTccP-7" target="FvKXWItsj1egY0afTccP-5">
          <mxGeometry relative="1" as="geometry" />
        </mxCell>
        <mxCell id="FvKXWItsj1egY0afTccP-24" value="create events,&amp;nbsp;&lt;div&gt;questions, choices&lt;/div&gt;" style="edgeStyle=orthogonalEdgeStyle;rounded=0;orthogonalLoop=1;jettySize=auto;html=1;exitX=0.5;exitY=1;exitDx=0;exitDy=0;entryX=0.5;entryY=0;entryDx=0;entryDy=0;" edge="1" parent="1" source="FvKXWItsj1egY0afTccP-7" target="FvKXWItsj1egY0afTccP-3">
          <mxGeometry x="0.2983" y="-7" relative="1" as="geometry">
            <mxPoint as="offset" />
          </mxGeometry>
        </mxCell>
        <mxCell id="FvKXWItsj1egY0afTccP-25" value="claim, reward, spend" style="edgeStyle=orthogonalEdgeStyle;rounded=0;orthogonalLoop=1;jettySize=auto;html=1;exitX=0.5;exitY=1;exitDx=0;exitDy=0;" edge="1" parent="1" source="FvKXWItsj1egY0afTccP-7" target="FvKXWItsj1egY0afTccP-4">
          <mxGeometry x="0.3396" y="13" relative="1" as="geometry">
            <mxPoint x="12" y="6" as="offset" />
          </mxGeometry>
        </mxCell>
        <mxCell id="FvKXWItsj1egY0afTccP-26" value="Group chat&amp;nbsp;&lt;div&gt;messages&lt;/div&gt;" style="edgeStyle=orthogonalEdgeStyle;rounded=0;orthogonalLoop=1;jettySize=auto;html=1;exitX=0.75;exitY=1;exitDx=0;exitDy=0;entryX=0.5;entryY=0;entryDx=0;entryDy=0;" edge="1" parent="1" source="FvKXWItsj1egY0afTccP-7" target="FvKXWItsj1egY0afTccP-1">
          <mxGeometry relative="1" as="geometry" />
        </mxCell>
        <mxCell id="FvKXWItsj1egY0afTccP-7" value="" style="rounded=1;whiteSpace=wrap;html=1;fillColor=#0050ef;fontColor=#ffffff;strokeColor=#001DBC;" vertex="1" parent="1">
          <mxGeometry x="169" y="540" width="490" height="35" as="geometry" />
        </mxCell>
        <mxCell id="FvKXWItsj1egY0afTccP-8" value="Responsive Front End App" style="rounded=1;whiteSpace=wrap;html=1;fillColor=#0050ef;fontColor=#ffffff;strokeColor=#001DBC;" vertex="1" parent="1">
          <mxGeometry x="189" y="435" width="120" height="60" as="geometry" />
        </mxCell>
        <mxCell id="FvKXWItsj1egY0afTccP-10" value="Mobile" style="rounded=1;whiteSpace=wrap;html=1;fillColor=#008a00;fontColor=#ffffff;strokeColor=#005700;" vertex="1" parent="1">
          <mxGeometry x="169" y="330" width="120" height="60" as="geometry" />
        </mxCell>
        <mxCell id="FvKXWItsj1egY0afTccP-16" style="edgeStyle=orthogonalEdgeStyle;rounded=0;orthogonalLoop=1;jettySize=auto;html=1;entryX=0.5;entryY=0;entryDx=0;entryDy=0;" edge="1" parent="1" source="FvKXWItsj1egY0afTccP-12" target="FvKXWItsj1egY0afTccP-14">
          <mxGeometry relative="1" as="geometry" />
        </mxCell>
        <mxCell id="FvKXWItsj1egY0afTccP-12" value="Web-based" style="rounded=1;whiteSpace=wrap;html=1;fillColor=#ffff88;strokeColor=#36393d;" vertex="1" parent="1">
          <mxGeometry x="354" y="330" width="120" height="60" as="geometry" />
        </mxCell>
        <mxCell id="FvKXWItsj1egY0afTccP-17" style="edgeStyle=orthogonalEdgeStyle;rounded=0;orthogonalLoop=1;jettySize=auto;html=1;" edge="1" parent="1" source="FvKXWItsj1egY0afTccP-13" target="FvKXWItsj1egY0afTccP-14">
          <mxGeometry relative="1" as="geometry" />
        </mxCell>
        <mxCell id="FvKXWItsj1egY0afTccP-13" value="Tablet" style="rounded=1;whiteSpace=wrap;html=1;fillColor=#1ba1e2;fontColor=#ffffff;strokeColor=#006EAF;" vertex="1" parent="1">
          <mxGeometry x="539" y="330" width="120" height="60" as="geometry" />
        </mxCell>
        <mxCell id="FvKXWItsj1egY0afTccP-15" style="edgeStyle=orthogonalEdgeStyle;rounded=0;orthogonalLoop=1;jettySize=auto;html=1;entryX=0.5;entryY=0;entryDx=0;entryDy=0;" edge="1" parent="1" source="FvKXWItsj1egY0afTccP-10" target="FvKXWItsj1egY0afTccP-14">
          <mxGeometry relative="1" as="geometry" />
        </mxCell>
        <mxCell id="FvKXWItsj1egY0afTccP-20" value="" style="shape=image;verticalLabelPosition=bottom;labelBackgroundColor=default;verticalAlign=top;aspect=fixed;imageAspect=0;image=data:image/png,iVBORw0KGgoAAAANSUhEUgAABCQAAAD4CAYAAAA0JTdOAAAACXBIWXMAAAsTAAALEwEAmpwYAAAAAXNSR0IArs4c6QAAAARnQU1BAACxjwv8YQUAADoNSURBVHgB7d1ddhNXvvfx3y6ZQPrmOCPoyggabvpZmLNWihHEvAR8chNlBJARIEYAjCDKDcsESJQRUFnrCT4nN7hH0JURHPfF05hgaT/1l2wwxi+SLVXtXfX9rCUwxuk2tixp/+r/4oTorK1tpMmwszwavr3oEr/s5Za9T/46+VufemnZlbfdP5e/u+Wj/9f8Vvn3W+O3pK3yv7O3x+9zbvSHK/9+6JMiceXHLKlYX79cCAAAAACAM3JCkFZXXy3/5dzb1EIHn3T+Jj9Ky3dfPDlgWLwyuNgcBxcu2Uy084dXZ3N758LmYHBpSwAAAAAATIFAIgAWPlxY2r7oNLw48mX4IJ+V704Vn8JuzvlfpSQnpAAAAAAAHIVAogbjACL596pVPng/yty48qGZJtUUbtP50a/6JMlp+QAAAAAAGAKJCuxVQHi5L5seQEyhKO92uZf/5c/hpzkVFAAAAADQTgQSC/KuCsK5byR/se65DwHLnfc/UD0BAAAAAO1CIDFHFkJ8uvT/uiOffFn+MRNmRTgBAAAAAC1BIHFG79oxvL8nQoh5GocT6z9d6QsAAAAA0DgEEqe0dnMjs5kQ8sMu7RgLVdjMiU7SefT46d83BQAAAABoBAKJGd268XK1/KLdEdUQdaBqAgAAAAAagkBiCtaW8Umyfce50V2qIYJQSMlDd87/wqwJAAAAAIgTgcQx1lY3Ur/k7tCWETLXd+d0n2ACAAAAAOJCIHEICyLU0T0v3xUiQTABAAAAADEhkNiHIKIJCCYAAAAAIAYEEtpd3dnZfkAQ0SQEEwAAAAAQslYHEgyrbLxCXo+e/LTyUAAAAACAoLQ2kLh947/vSMMeQUQrFM77+6wLBQAAAIBwtC6QWLu5kXnv75VvZkLL0MYBAAAAAKFoTSBh7Rnnk9f3yn/xXaHVvHe9H3+6fF8AAAAAgNq0IpC4dePlqpP/nvYM7FO4c+4q1RIAAAAAUI9GBxK2xtN3/IPyzVUBh6BaAgAAAADq0dhAgqoIzIBqCQAAAACoWOMCifGsiM72g/Lad1fADKiWAAAAAIDqNCqQ2N2g8X35ZirgVNjEAQAAAABVaEwgcfvGf9+RRg8FnF3RSZauPX76900BAAAAABYi+kBi0qLx+ufyzUzAHNHCAQAAAACLE3Ug8fVXv10cjpyFEamARfB6+Gb06f3B4NKWAAAAAABzE20gMWnRGPbYojEtv+Xk3h2qvfwyX7upsYUDAAAAAOYsykDi1vWNe875nlrNb8m5wnm3WYYL/0qcCj8q35ckhZZU2EfMcoBeW9tIk+FoeeST8uaXO06phRbOub9575a9H11seYBBKAEAAAAAcxRVILE7L8K2aKyqTZw2LXgoQ5h/eLnN7Z0Lm3W0ENjX/8LS9kUnf3HklU7CilYFFVte+vbH5ysDAQAAAADOJJpAYm11Ix11/M/lJ3xRjea3ksTl8vq1zvBhFjbLw3uXlfemL0aj8fcnVYMx7BIAAAAAzi6KQMLCCN/xL9TQg65zystj7q9Skq8/u5wrcnsBRRmofOm9z9RAhBIAAAAAcDbBBxKTTRp60ay2AL/lnNssv/i/vN75tN/kDQ7W5vFJ53WWlG96+S+b9H0klAAAAACA0ws6kFi7uZF5P/q5KYdYq4RoQwhxnLXrG13X8V+ORk2ZA+L7T55f+VYAAAAAgJkEG0jcuvE/3zgN+4qeVUPo0fbOXx62NYQ4jLXhKFHmnb+n6FtxCCUAAAAAYFZBBhJNCCMmcyHc/SbMhFg0q4SR910vfaNoEUoAAAAAwCyCCyTiDyNcvwwjfiCImN24aqLje/EGE4QSAAAAADCtoAKJeMMI2jLmaRxMLI263jsLJlJFhVACAAAAAKYRTCARZxhBELFI+4KJe4oI2zcAAAAA4GRBBBJxrvZ0fXdO99fXLxfCQsXYykEoAQAAAADHqz2QsMOm74xexRJGMKyyPuP7yjn/QLGsDPX67slPKw8FAAAAAPhIrYHEJIzwLxTFnAC/5Xzy3fpPl/tCrdaub3RjWRfqpWs/Pl8ZCAAAAADwgdoCibjCCD16M/y0x5yIcKyuvli+sPTJ3QjmS2x1kqWrj5/+fVOYhlW/3FHcrpU3HitOlpa37xWnOr7H9rVK1U6/lDeqzaaXKt6frbP6obz1VZ2+ol5Zjsh9Xt4KVaNX3qKa6RawQh9/37b0/nXFH/s+bu/9h/03jbGkmow6/mcX/ourwjn3Le0Z4RkMrtoPZ68MtvqBB1vLw9HOz2trG1eZNzKVvLw9UNwHLzsIXBOOYy16sQTSB9lsmDoCp0ztDSRSEUjMwoLdTO30qwAgbKlO/3xe7Lv9o7zZBc+t3d+jlagGt6+/fFCGERcVNquKuEQYEbb1weXiyfOVz53zIQ+QTEdv/c+rq68iGtpaG3tQjf0wb4eBu8Jxomi5OoS1X/WEqqVq7wH7NLhiDwDNlGryfNjV5AKeXdx5Vd7+d/dte9+qInuNVXkgcev6xj25oF+sW1XE1fKQe5cWjXisP7vS6yT+kgItZ7IA7nzymlK36VjK+53iFuuBuwpdxRnYFIr/fhmzTJhGqvAv+AAA5ssuemaavL76ubz9U5Ogwqp2V3f/PliVBhK3brxcLa9k9xSo8tD4A1UR8Xr89MqmG7qrbtJDGp4yiLt9/SVXzqdj5dm54mUP/G3t4T5Oqnh7UL9Vg/s3I8BV/+nEsYUKALBoFk53NQko9ioo7M+pAlNZIGFDLN2kjCRMTt+tP1/pUhURN2vhsO9jsC0cTg++/up3rl5Nxw6AMf88ZqJ146BYK0fs8SQX6pSKKolpfCkAAD6WaXKxzKon9sKJIFQWSAQ8eLCwUv8nz1YYmNUgIbdw2JBL5klMpdAklIiZhbAEUBNdBfTkN4NczI0IRSYcJxVfIwDAyTK9Dydq3+JVSSBhQywVYBjhpU13zl21Un+hcfZaOBReKJGe77ymnH86NkTwkeJmpXJtD6BSxdmqUSj+UKxJuPp/vEwAAEwv1eRi0V4wkakGCw8k1q7/1g10iOWjH5+vXGIVY7NZC8eb4ZtLTqPQ5kqsMk9iaj3F3bufit3dtafvp8TciLBYtVEqHIU5GwCA0+pq0spht0qrexcaSNjcCO9ccC/Ebb6AbdEQWmEwuLq1/vw/w5sr4XRvbW0jFU7ShFWg9niTqZ3sOSBTfJgbEaaucJhUVEgAAM4u0/sNHakqsNBAIsS5Ec67b22+gNA69n0PLJRYHr31PwvTaMIqUHtgb1vrRqo45y/Y/a0nhOgL4TCZAACYn64mrRwLLy5YWCBx6/pGYNPU/ZZX59r6T5f7QmuNwygXzsHWSRfXbv7WE6YR+yrQVO1bBfpC8SkUf0VOk2WibeMwtGsAABahp0kwkWlBFhJIjFd8Ot9TMPxWJ9HVH5//n4HQerZRxSplFAjv3T1WgU4t9lWgq2rPKtBYV3xaYFkIIesK+6WiQgIAsDipJheZHmgBFhJI7LZqBGISRrBJA/tZpUxIocTOaIetG9MpFP/V61gP6rNIFWfLg7V0EVyHj7aND2UCAGDx7KKaVUukmqO5BxJhtWoQRuBoIYUStG7MJFfcq0BtjkSTAyj798XaqtETYpCJVbr70a4BAKhKqsnQy1XNyVwDibBaNQgjcLKQQgnv3R22bkytp7jL6jM1t3UjxgqQorxdFWLSFUwqKiQAANWyiwI2mH8uAy/nGkj4TjgbAwgjMK1xKBHG9o1l/9bTujGdvVWgMc+TsD68ps0OiXVGhv38F0JMvhRMJgAA6tHTHEKJuQUSa9d/6yqQF9d2xZswArMIaCVotnZzIxOmYT/jIa1xPQ0LcZtSep5qQcOOFszuQ30hNplo2zC0awAA6tTTGUOJuQQS1qrhnVv4jtJp2KGS1Z44jfFKUPnaZxN4779fXX3FC+3pNGEVaBCPnXMQa6tGT4hVV+2WigoJAED9ejrD69n5VEh0wnghOg4jxodK4HSePL9yt7wn5apXemHp321ZDTkP1rpRKF72vc4Ut67iOxxauw9zI+LW9raNTAAAhKGnU4YSZw4kxtUR8l3Vb0AYgXl4M9yu/YBrAy6pkpiaHSyDWeF6SjY7JNbvd6o4qzy+E3MjYpep3W0btGsAAELS0ylmiZ05kPAdH0LPcPFm+GnsBxIEYjC4uuWG7qptalF9ls93tmPsx69LrrhXgaaKdxWofd6p4mL3lb7QBF21UyoqJAAA4bHzSzbLf3CmQGJ3kOXcdpCeUuHOuauDwaWYp+0jMOuDy4XzyXeqle+yBnQmPU0GXcYqxg0VdxTfoahQc1eutlFb2zYyAQAQppkuVp0pkAhhkKXz7v76+uVCwJxNhqPWO+SSNaAzacIq0JgGQ6aaDBWNCXMjmidTO9s2WHsKAAhVqhkqf08dSOxWR6SqERs1sGhvhn/2VO9Vd9aAzqZQ3KtA7WAVSwj1QvGx+0YhNE3dlZpVs8eJtv2bAQBxyTRlReqpA4kAqiMKhlhi0XbnSVyrc56E974payGrEvsq0Ezhr6KMccWnVTvFVtGB6bRtuCNhBAAgBlO9XjxVIFF/dYTfsrkRAipg8yTkXJ1X3amSmF3sq0DtATxTmFKFH5gcVCi+zxnTu6h2tW3QrgEAiMFUlb+nCiRqr45wzI1AtZ48WymvrLpcNaFKYmasAl2cGFs1LMBm8HFztamFgXYNAEBMMp1wkW3mQKL+6gjXnxwOgWq5oR1wa2vdoEpidrniXwUaWhBlq5xSxcW25RRC07WlbYMwAgAQm2OrJGYOJGqujijcuagH1iFidbdueN+6Pul5sGE6Ma8Ctc8/Uxgyxbcusy/mRrRFW9o2aNcAAMQmLW/do/7SaQZWHVEGErVNgHfefVvlVo3/uvnyrpcP7gXO9s5fHg4Glyq/Uj+ujklCvDqa5OvPLueqyO0bGy/KeCBTDd4MP/2sju995NLy9krxHlbs+31J9V7lTzVp1UgVj0KTr1tTfl7+qfiqU6pms2MGai57DPtf4Th20aCn6vTVvqGqCMfnqu61QU/hVW0iLoUm99mPLGkG3iXlg65XTYqqV3yO7Bdf+zaRj5xPXv+HJmXIlXkXRtX27T+SVc30VaFOMvpuOHKvVIMLS/+2K9Q9YRaFJi9SHyhOewOB6hzkG+NWDeZGtI9VDzQ5kMgEAECcUk3aDj96np66ZWNtdSOt66qwqWOrRt2DDI/kdPfrr36/qAoFsOb1UM5XP+D08dMrm+VXpJbZBN67O6urr9o0TX5erGw/5oNKpvraJbo6pswuUMyNaCd7odPkx0faNQAAMbtz2DunnyHRqbNMx/Xr2qpR8yDDIw1HO5Vd7a1/kOmRHlVdNbPnzfDPXk33i+XzS6+7wmnY1o1C8aqjSiFVfCWafTE3oq0sjKg0rK8YAy0BADHLdEi131SBhFVHePmu6lHrIMu6Bxkeo5KtC+PvfZjVEcWb4ac91WQwuLrlXE0bHDxXyU4p9lWgdtj6WdWKbatGITH4uOWa2s/f9OoPAEA7fBSuTzXUss5hllUPsjxKnYMMj2GH8kuLHHK4dmPj+xrDqCM5565WOcjyKLdvvKxl0Fwo//5I2dXzO4qXff5VzJC5o/gqDaoc8FU1hlpOx54PP1fz5ofYa7CucJKqh1ouqz1BkQXiMVQg2fNjk2fJ7FeoOj3FUTH5i8LdCLb/8WLv7bS8/XX397Zsi7Ln58/2v2OqoZY1XiEvQggjjLVu+I5/Vb4V0h0lXeSQw5orY47knL+//mwlVwBshoV3vvKwzntv6WIunIb9zHyheEu77fO3J9xci5MqvuGpdhAphLbba9vI1Sy0a4RpS+0ZnhvLv9M+z0JoK9tEVCheqSbPYZnifq16HHuezrTvefrElo3dtoBUNbDDngJhrRu1legfw4Ycrq3ZwNEF6ASZhBbrz670FIhJYFbL4NNvGG55JrYeMOYXkRaCLfL7/0JxpfR2NawnYKJph3faNQCgHQpNXtPYxSdbXW4Vf00c1P3B8/TJMyR8bf2YwVRH7Nk9CG8qLMv+7fyDg3GbTojVETVsWzlJGVTVEZwtf9p5nQmnVSjuWQOpFlc6GduKz0IVr0FG8Jo2R4K5QQDQToUm7bMWTMQ+nH2/D56nTwwkvEa1XGkIqTpiv07iAxyK57vzHnAZ4iDLcatGTdtWjjOZ5VB9lcQo7jkIIYh9Fail5/N+fE4VX6WBVbsUAt7bKwdtCto1AAB9NSeY+GAr1rGBxGTdYy0zE4Krjtjz+OmVTTsYKzDe+7kFCIGu+QyqVeMg5/WDqpfRtnFmsT+oW+tGqvl5objYY3FoVWsIQ1MO8bRrAAD265c3qxiP+aKayfbeODaQ8B1XS5lgqNURewJt3chuX3955qmyoa75DLFVY79JgOYrn0lwful1VziLJqwCnddQ1dhaNZgbgeM0pW2Ddg0AwEGFJhWiMbcfZ3tvHBlIrK6+WNaolisMwVZH7Bdk64bTvTNfMe+EdygJtVXjoFqGnnperM5BXt6CG1g7g0xnX3GVKa7DfSHmRuB4TWnbyAQAwOF6ijeU+NveG0cGEheST5gdcYxAWzeWd9eAnkqIaz7LQ34ecqvGfts7fz6soUqCto35sJ+bXPE6S5CYan5VFlVp0mAnLE7sbRuZ4qpaAgBUr6c4L6yl2m1JPDKQqKtdQ5/EcygIsXXDe3fv1GtAg1vzWR7ul1w05fSDwVULIyqfJUHbxtzYfa3ytps5sQf0n3U6sbVqWBCcCyGxapU65uicJPa2jVA+//uKuywYAJrOLqzFOFMrs1+OniFRS7uG68dQmr9fiK0b/q2f+WpnkGs+nYuiVWM/55LqB8zQtjEvheJ+0W3Tih9oNt3dWyxyMTciRPYiqK/wxN62kSkMfVGRBAChi3EmWmq/HBpI3Lrxsp52DRfkFZZjBdq6kc26BjS8QZau/+TZykNFpqYVoBdp25gbu89F9zi0jyXk2ZQfm0qhVUUdq1DcA0ibLleYFUaxtm1kCqNyKRdhBADEwC4OxPYadjxH4tBAIlEt7RrF5DAXnzBbN6avkghwzWfhzsV7pTpx/hdVa/nC0vZFYV7sUF8oXvazP01AFVurhrUFFELIQnwhFGsFWSjtGjEHtADQNj3F5TP75dBAwstnqlgswyyPEmDrRrp287feSR8U4ppPuy/E1qqx3+udN31VrAygYh/eFpLYV4GmOrny4Y7iatWw54fY9223QYjfo1Rxtm1kCkMuAEAsCsX1uH14hcRXX/1uV1pTVS2iYZaHCbF1w3t358RS/uDWfLp+DGtfjzMZbll52wZzJOYrV9zzJKzK46iQKlVcCbpVn/WEGOQKs20jU1wy0a4BADidmCrbDt+y0Rm+rbz0e7zaMeIr4nsmax+DevJePt/ZPnLIXYBrPqNu1divhraN9NTbVXCUnuK+OmitG+kh73+h6Vo6QlCUt2tCTNi2cXa0awAATiumilJ7Pbr8USBRy7rPkWvEk55dGXcutDWVvnvkgMvA1nzG3qqxXx1tGxqOMmHeYl8FenCWTIwrPgshJrRtnF2mMOQCAMTGXrfGtAL040BCo+rnR8TerrHfZDCnf6SAeO8/Ch4CXPP5KPZWjf3qaNvwo+QLYd4KTYYpxirTpH3DpIqr9cHCiL4Qm1y0bZxFJto1AABn86si8kEgMZkf4Sot5W1Ku8Z+b4Z/9hTWE3m2u0njncAGWRZvhp/21DDVt23UECa2Q7+8BRUyzmivKuKF4lGIuRExY9vG6dGuAQA4q0LxSD8IJOqYH+GlqnvtFy7E1o0ygHiwN+AytDWf9rUaDC7FWhZ/JL/jqi5dZo7E4vQU79VC+7l/pXhaNYrydlWIWYhtG/UM7J5dpjDkAgDEqlBEPmzZcNWXfHfcUq4GCrB1Y/nC0r/vhrbm0zaTTL5WzbM+uFy4qh8QmCOxKLGvAo1liKVhbkT8coX5PewqbJlo1wAAnF2hiHwQSHjnq66QKB4//XtMQzdmElrrhq0B9R1vWzdShaFYf3alpwbzqrZtw49c5VVOLZIr7nkSMbAQty80QYgl/6HP2aFdAwAwD1FVnr8LJFZXXyyXp6eKDzPVDv2rWoCtG3aVdFWBcOdc48uyna98yu3fhEWy1b65sAiF3g/gRPxyhSdT2G0bmcKQCwCAirwLJC4sXaj8ymoi37j5EQeFuHUjBONWjYYNMz3M9ujPqnupqZBYvJhXgYbKvp7MjWiWXLRtzCIT7RoAgBZ6F0g4+eoHWp5zjW3X2C/ArRt1a3yrxp5xlUy13/tlBlsuXKG450mEyFphCqFpaNuYXijVi7RrAAAq9S6QGHmfqlpFG66QmxC3btSpDa0aB1S7C5jBllWwyhcqn+aDuRHNlSs8mcIc8hrKWtJcAIDYpYrIvqGWScW95/4fahFaNyba0qqxn3PVzpFgsGVleuKq/lkVmnwd0Uy5aNuYRigrSXPxmAYATRDTdrViXyAxqvYQ45o90PIwbW/dKA/meVtaNfbzqro1qfJqp7ayuQfXhNPamxvBPI5mC7EFIJRqhD1dhYF2DQBohlTx2BoHEuMNG3KVJilO7ZgfsV+7Wzf8lpba+W/f3tmu+L7u2LRRHfvesgr0dO6Lq7FtkCs8mcK6ekS7BgBgnmI6C0wCiTo2bGzvXGhdIGFa27rhXOtaNfbUMNgyFarEKtDZ2WPgQ6ENctG2cRzaNQAA8xZL+3Zhv0xaNkajVJXym4PBpdaW6bavdcP1nzxbafXhwyfVzpFg00blWAU6vULMjWgb2jaO1lUYaNcAgGZIFWUgkVSezv+hFmtZ60bhzo1Ls9tt5Cu9z7u3PpYHoqYoxCrQaTE3on1yhSdTGG0btGsAAOYpUzz+Zb9MAgnvUlXKFWq5trRuON/eVo39nK+2QmLkaNuoAatAT2bzNgqhbXLRtnEY2jUAAPN2R/EYn4/GgYSX+6sq5BLfyvkRBzW/dcP113+63BfKgMBVe0XYE0jUpCde2B+lL+ZGtBltGx/LFAbaNQCgGTLF065h3gcS5eXbassWfVIITW/doFVjn2RY9VYZ9x9CHVgFerhCbCNpu77Ck6neto1vFIZcAIAmeKC4FPbLbsuGT1WlJa4g7mlq6watGh9aH1T7tXCu4p9p7Mcq0I8xNwKFwjz4rqoeqcK4ipWLqi4AaIKu4qqOMPsqJOQqvULAQfVDDWzdeESrxseqXP3padmoG6tA37NKqUKA9KvCU1eVQl1ByEG0awBA/FLFVx2R772RrK1Wvh6Qq2QHNKx1o3gz/LQn1C2E6fFtxyrQSZl+T8BEX+Gxq0l1PF7SrgEAmIe0vL1QfK/9/7H3RjI816n4k/eF8JGmtG5YsDIYXCJ0OoSvdrvM8urqK0KJehVq9zyJQmKODD5QKLwDsD1OVl2tkIp2DQDA2aWahBGp4pPvvZF0/LDSQ4urettARGJv3XDO358EKziMk/9DFbpwYZtAon652rsK1OZGFAI+RNsG7RoAgLPLFG8YYfK9NxJVzHv/L+FQkbduFOvPrvSEYCTDDoFEGHpq38GcuRE4Sl/hqbptg3YNAMBp2fOVzYuIPYx4V6SQaDRKVankf4Ujxdq64c65q8KxvHyl1UGjiqufcKS9VaBtqQ4biLkROFqhMNs2MlUjFe0aAIDZ2XPVvfL2z/J2V3H7Zf8fKq+QKI9lVEicILbWjXGrBptTTuRctQdS5z2BRDhsrVEb5ikUYuUpThZi28aXqkamMNCuAQBxyDSpiLAgoqdmDK4f7P9D5YFEeXhlhsQJImvdoFUjUD4hkAhMG1aBWiVIIeB4fYXH5jpU8ZhJuwYA4DhpeeuWt+/Lm3UWWGuGVUQ05XW9XaQr9r9jySVu2XshMNa6cfvGb4/KCOeOAkarBjATCxpfqZlrWa0CZFPAyQpNDsSZwmE/k9ZKkWtxUoXxb85FcAgAVVvW+9d/9nu67/e/avIclKqZrxH3+2g0wZKXXUV1QnisdeN857yVkaYK0KRVY6UQguS9o0IiPIUmVQQv1Cy5mBuB2VjbRqawWPVCrsXJFAbaNQA0VaaTX2OlOrtUOK384DuWhGBZ68Z/3Xz5aOTHfUOhoVUjcE60bAQq1yQdDrr6aUZ7qX4hYDp9TYZzhcTaNmwGyqJaS2nXAIDFSkVYELK+DnmtWMNQS0xrbXUjLcOIUA8t6e3rL2Of8ArUpadmHd4t/PpewPQKhbltY1EbMFLRrgEAaLdDK/QIJELWGV89ShUqp3traxupECQvxwDZcNmV2FTNkin+NVSo1i8Kz6oWI1MYaNcAANQh1xEXIhLHoSVIa9d/63r5rsK27N96rooGio02wUqlINuw5sH+XYu6wozm6Ss8i2qroF0DANBmRwbiiR9xaAmNtWp450LrrT1KRusGMBMbttTk+R4/q/kTojEf9vojV1jsvptpvlLRrgEAaK9cx1yEqLxlg8n/Uwi9VeMgWjem412qCrkR1U8Biutn+3RShTesEOFqQ9tGpjDQrgEAqMN3x/1lDTMk3H8IR4qkVeMgWjem4BNVet/3jkAiMF21ZzWmVU2FUqKOsPUVnnnfd2nXAAC0Vb+8bR73AcmIQ0swJq0a0faW07pxkhHVQS2Wqn1VAw/F6i2crOltG6lo1wAAtFNR3u6f9EFJUnEg4ZxPhUP5jlUZRHxoLcOUr7/6nYF2R3Cq+L6/xIvPgNhchVTtwipQTKvJbRuZwkC7BgCgahZGFCd9UKKdag8t3nPF7DC3b/z3HYXzwuXUdkY7HECO4Cs+kK6vXy6EEFhlRFuDukysAsXJ+grPvNosaNcAALTRQFM+v9cwQwIHWauGNOypAVx58Lp9/WVTVxqe2lfVV47QihWGTO2ZG3EUezzIBBytqW0bqWjXAAC0T6ETBlnul6wPKr+KmgofiL5V4yCnu2s3NzLhHTfaSVUh544fHoNKpKJlYY99HZihguM0sW0jUxho1wAAVOlbzRCE71ZI+EqvprIi8r2mtGoc5L3/fnX1FQeQXYnzlVZIlF//fwl1s0N4KphUrALF8foKz5c6G9o1AABtY3Mj8ln+g3Eg4VTxYMu3vury9SA1qVXjEOn55DUHkF3eJ1+oQlRI1M7u+5mwH6tAcZwQ2zZSnf7neJ6bOs4iF+0aAIBqPNIpWpXHgYSXK1Qhn3iunGvcqvGiUa0aB9G6sc+o0hDOeUcgUR/7XveEw7AKFMcJsW0j0+nMa0vHWdGuAQCogj3fnGqQ+W6FhP9DFfIj1/oKiVvXN+wKaqqGo3VDmoQy1QZPLlkqhDqkmqz4xOFYBYrj9BWe01b1nLXdY15yAQCwWHYh9NRb1SYzJJwvVCmfqsWsVcM531M7pOc7r1t9APF+VPWVsq3HT/9OhUQ9WhE0nlGmyeYN4KCmtG1Y8BZChUQu2jUAAIuVl7erOsOGv0kgMar6Ccv9TS02adVoldXb11+eOjWLn6v0ShnzI2pjYURXmIY9HmQCPtaEtg3aNQAAbWDPM2cKI8w4kBh2zlV9gEnbWsbfllaNjzjda+N2ld0ZGqkq5L3+IVQtFXMjZsUqUBymr/DMGirTrgEAaDrbptHVHIwDic7bYaVbNsyFpe3WzZFoWavGQcujt759vfW++q0CCS9Cq2aH6rZVPc1DKlo38LEQ2zbs9Uo65cfSrgEAaLrvNMcLceNAYn1wuShPTpWGEl7tW/3ZwlaND7jyRd3t6y9bcwCxAKq8n3dVsdfDT3OhSnafToXT6OoMQ5DQWCG2bXSn/DjaNQAATVWUt0uabE2bm+TdW67a1Z/y7Zoj0dpWjYPatAq0M54pUCnnlA8GlyqveGqxO2JuxFnx2IiD+grPF1N+HO0aAIAmsqDbwoi5j3p4F0i4yvvOfaaWaHmrxkfasAq0ruoI5kdUKhVzI+aBVaA4KMS2jUwnB2e0awAAmsaek69pcgFuIRc93wcS1U/mb81gy7a3ahyi+atAa6iOMM65gVCFvbkRDGWcj0zMk8CHYmzbyBQG2jUAAPPwqLx9Xt4Wer54F0h4ucpXBV449+9Qei0XhlaNIzV2FWhd1RGlYv3Z5VyoAj/X88cqUOzXV3hOatugXQMA0AS5Jus87bXZwlvB3wUS2zvblQcSfuQaPdiSVo0TOD34+qvfG3cfqK8ixuVCFbpiEOOisAoUe0Jt2zju/km7BgAgZrkmQcRVVfgc/C6QGAyubrnqn8RCuZqwEOG1arh++Vk9UkCGo52fm9S6U2dFjHOU6VYgFa0Fi5SKeRJ4L6a2DQsjQngu43kAADCrXDUEEXuSA3/+VdVK19Y2UjVQgK0ahTun+2+Gf/YU1tWTxsyTqLkihnaNajA3YvHsYEcFCkxf4flyxvdXLRcAACezSkS7UF1bELHng0CihsGW8ju+cXMkQmzVcN7dX1+/XFglTCfx1xSW6OdJWJVHnRUx9v0VFo25EdXhaw0TU9sG7RoAgBjk5e07TYZV3lUAz7MfBBJ+p4YJ/b55bRshtmqs/3S5v/enx0+vbMqN74jhcHqwdnMjU6QudLatjD9VXT7hqtiCdRXXik87yH2reNmB72cBcbRt0K4BAAhZXt7s4qWFEFYN8VAVDKuc1geBxPrgclEep6v+5DJmCCzUuFXj4DufPFt5GNoQRO/99zG28Nj3vKatGrvKwGndfnaxIKlUzxrXM7Cf+b4mpXixsoG3zOtAX+H58oQ/1yUXAACTsKGvSSXEZ5qEED0FWkWXfPye6g+p55ded9UAdoU/1FaNQ/9uaFdQfTDpWCkdvfVRDbm8feO/79T9Pe8knZgPnTGwK/Wp4tHXJPk2vfJWeSveHLEKFDG0bdCuAQCoU6H3AcQlTUIIq5QNqhLiKB8FEomvfLBlI9o2xjMEyiv8Ckmiwf5WjYOsIsb5JKjWDVdeFT2fvI7iavTXX/1WXsEdPVSNnFP++OnfYz5whs7uizGtpi2kDyqi9lo3gn8yOgarQBFiK0J39/dMtGsAAKpRlDcbsWAXI+313V748LneBxDRnQuWDr5jPEei46sukx23bQwGl6J90bx7iE4VDL/lOieHDRZY3L5hB2t3R6Fwunvr+sbWjz9dDnZQo4URw5ECmBXCMMsFyhTX3AhjP/PFgffZE5PdT2Jtf0g1CSVCG8aL6tiLL7v/hhRM2YUUe+H3jcKQCwCwpfguwhS7v+//3P/Y9+fN3d8LNdRHgYRdNV+78bLwFR+uLyz920pze4qQtWp478PaEuGObtU4yFaBnu+ctxdXqQJhbRC3bvxP8ePz/xPcVR/bojIceSvjr/XFsVVHsOpzYVJNDsExsdDhqMHEdnCyn/FMcdpbBVprRRJqs/eCLFM4Mk2eAzLVLxftGgBg7HVQzEO9Wyk57J1evvKp1t67LxShIFs1nDYnQyunY6tAnXPB/fA6DR9+/dXvQZXLWxixu0UlVe2ojligeremzK7QyYFu7K0brAJttxBbEl4pjPsk7RoAgGgdGkg4lwxUvSzGtY/htWqU378lN3Np8+RKuw9tOOLycLTzIpRQwto0fGcUyAtQ16c6YmHsZzqEIXWzuDrFxxRiFSjiZa9LQgvUUoUhFwAAkTo0kNje2d6sY/uC9z6qQ8CtGy9Xbd6BAuKcv3/aFZBPnl+5G9oqUAUSStg2jcnMCBdED/Nhq1wxF3Y/6ykudl8opvzYvUFIsWIVaHvttW3gQ7lo1wAAROzQQMJK+Mu/quOJ/5tYVj5a6b4L74Vxsf7sSk9nEOAqUGOhxKtb1zcq375h98fb118+mGzTCCOMGFdHnDJ0wrFSxXcF3gKGnmbTU9wHGFaBthetCR/jawIAiFpy1F84P6rjSW55d7hl+Drh9TO7c26asu1j2VBTr/DmSRgbdHn7xsb3a2sbqSpgFTDnO69fBVYFU1AdsTCxzSgoNNmqMau9VaAxYxVoO4XYtlG3XAAAROzIQGJ79OegnraNgNZPHmHt+m9dL99VQM7SqnHQj89XBgHOk9jlu/6tH1dLLCqYsFkmt2+8fOEmV8tTBcR5d5/qiIWwMKKruMzSqnFQrrhbN1IxT6KNaNv4UC7aNQAAkTsykKixbWPZDvwK1HjLgnOVtw6c4MytGgfZKlCF+8Jv2aolymDixbwqJqw1479u/t+7FkR4P96ikSk4rr/+0+W+MG+p4psbYWFCX2djlT8xH+4yKawZPqgELQrv8bUAAERv6bi/tLaN8vCdqWK7B/6+QtTQVo2DLJAqw5drk60SocxO+Eg6qZhQ99aNl5uJs3W1Sb69c2FzMLh0bHWPBRB/Ofc29f7PbOSTL6V/Xyx/D7kEnFaNxbDv+QvFpdD8AhTbyGObY2Jtf7DHYyvjL4S2sO+3zW+iZYd2DQBAAxwbSFjbxvnOJw9qOJCmVjYf2lrDcFs1VgotgM2TWLu+8Z13/nsFzkkXvXcXy4Di3vnOa92+8bLQ5JBSBhNuXzjhU42DjNfpcGR/Tt7/LwSMVo2FsYNNqrhYADmvdrpCk9aPWDdX7K0CnefXBGHba9vI1G65COIAAA2QHPeXk7aNekoCvfdBtUW0pVXjoEmLQKjzJI6VavKCdVXjEGnvNn5fqqjQqrEgNq+mq7icZW7EUR4q7iuttgo0tMdmLBatCnwNAAANkZz0Ac4lA9UjC2qWRIitGq6abRhPnl+5W/6/5UIdijfDC6fZpIDjpYpvboRdFe5pMeyxJOYKA1aBtgvbNmjXAAA0xImBxLhtwtUz+CyUioQQWzVKj6psaXHD8YGlECrkt2w+yEnzMHAqNjciph50uw9c0+IUYhUo4mE/D7+ovXLxfAwAaIgTAwnj5Ot64k/Xbv7WU41CbdV4M/y0pwrZPIlO4q/VsQq2tRxzIxYkxrkRViVTaLHsqjOrQBGLvtqLdg0AQGNMFUhs7/z5sK6DqPfujm1EUF1CbNXw7n4dV80fP72y6XxC+0AFbFjpk2crD4V56yq+VZF9VXf46inuK6+ZWAXaFla52daAPBcAAA0xVSBR53DL0vL55HUtFQphtmrUO+DQ/r/tsCws0mDRw0pbKlV8ww8LqdJ1r/ZYH3vrhn2PLwpN19a2jVy0awAAGmSqQMLUONzSekbufv3V75W+wAy1VcOdU+1hwOSwHOXmjRhYO07sB8JQ2dyIVHGpY3ZLLtX/OHMGe6tAmSfRfH21D+0aAIBGmTqQmAxQrG/TwnC080BVCrRVI5SZAmzeWIiCIZYLE9zP8xQsFMhVj57iLgtPxSrQNmhj20YuAAAaZGmWD3ZO972vbbVadvv6y7tPflp8X/3q6otlOf3g5IK5EpG40dbjpyu1bDs5ypvh9rXznfN21Zny6LMbhxEMsVyIVcW34rNQ/Z+zVWe8UryVBjZLwkr6c6Gp9to2vlE75KJdAwDQMDMFElYlcfvGRi75THVwure2tjFY9KFtd2ZGLhzLvk5leHO1DCXs0JIKp+S3OomuPV5fKYR5SzXZqhETe/y5qvoVmlRpxPb1289aNy6JQ1yT9dWeQIJ2DQBA40zdsrHH+VqfEJf9W/+9EAwLJdzQ2eGpEE5hHEZctQ0mwiLYgTRVXCwEKBQGq0irb37Q2Vl1B88Zzdamto1cAAA0zMyBxO6Gh0L1GbduCMFYH1wuCCVOgzBiwWLcttDXJAQISR2DNecpE6tAm6wt2zZy8RwLAGigmQMJY8MVVadJ60YqBINQYlaEEQuWKc65ESFut2jCKlBrO2HWTXP11Xy0awAAGulUgUQAVRLLo7f+ZyEoFkq8Gb6xfm0O2ccijFiwVHGW6YfUqnFQXt5iX/XLKtDmakPbRi4A02BTGRCZUwUSpu4qCVde7bp9/WXMw9YayWZKPHm+cslpxNWcwxXuXHKJMGKh7HEhVVzssN9X2HqKuwIqFatAm6rpbRu5qD5E/VLFgUACiMypA4lJlYTLVSenu7duvFwVgrP+/D+7zvkQy8/rxGrPxbMDZ2yPCYXimHFgL/KuKW72deY5o5n6ai4CfgBAY506kDDO1d/v7KTvmScRpvVnV3rOu2+tRUEYvBl+eokwYqFSxTc3woSw4nNaVtnzneJm7Typ0DS5mntlNBcAAA11pkBi/dnlvPYqickq0Berq6/oDQ6QVdK4YWJzJQq1ldN3T56vXBsMLhHMLE5a3l4oPiHPjTiKbQHJFS9WgTZXEysJctGuAQBosDMFEqaTjEK4Wpae77zmBWagbNhleSD/vIUtHEUn8ZeePFsJbY1jE1mrRqq45IqzosPY1o2YA7ZMrAJtooGah3YNAECjnTmQmAzn8yFMX1+9dX2DgWUBG7dwDN3navzVHr9l4Yu1aDC8shJ3yltXcSkU9yrNQmGuKJ0Fq0CbJ1fz2jZyAQDQYGcOJMyb4Z+9EOYElIfA3u3rL7nqFbB31RLj2RLNCyacU25bNCx8oUWjEqkmLQSxibFV4yD7usd+RZpVoM3TpIqCXLRrAAAabi6BhK16LE9iYVwtc3pw68b/fCMEzWZLNCmYGAcRzl1df7bCFo3q2EEyxrkRfTVnI0DsP7+pWAXaNE1q26BdAwDQeHMJJMykT772AZdjTsP+11/9TiluBGIPJj4IIsZDXlGhGOdGFIp/S8V+VgUUc+uJYRVos+RqTttGLgAAGm5ugYRxw3BemA5HOy8IJeLxLpgoD/dufFUo5FWh72ZEfEYQURubGxFje5at+Gxij3sIc4TOglWgzdKEyoJctGsAAFpgroGEzQcIaJPCMqFEfOxwv/58pfvk+ZXPvHQtnHBi/Dk8ssDEPjdmRNQqVZzbKZowN+IovfIW8wBXVoE2SxPaNmjXAAC0gtMC3L7x8pXCmV6+1UmWrj5++ne2HURs7eZGJo3KW/KF96PyvuUWPIjObyWJy+X1axmy5WzLCMo/FWerxudqNnvMt5keMQ+JtHaaUIekhny/t8qfXGH5X8V9XwxtI1VXcYR2Fvz2hEWI5bk3xMejJugpjplLfcXfSto6S1qATuK/HY7cK4Vhr1KCUCJiu20R+d6fv/7qt4s7I5cmzl90zv1t5MsnSe/T2YMKbwNZC+fdptzoD43KF4CfJPn6+kohhMhWNaaKi1XSXFXz2eOrHQYeKF72ueeKu9oDE1ZhcEdx+kW0awAAWmIhgYRdTb598+V35dXlUF6YjkOJWzdefvvj85UmTeBurd2KBbt99P1cW9tIk+FoeeSTw8OJpckLPbZhRKerOOdGNLlV4yCrLviyvGWKl60CvaTmzfpoG3tuiDWQ4HUKAKA1FhJIGNu6cfvGRvnC1GcKw7IrX2jevv7yuyc/rYRakos5IGhopFRxrmfsK9wWgEWxUkmrkIu1XD7V5L7WpG0obZRrEirFeD8kkAAAtMZch1oeNNm6Edi2BKcHt65vsHceiIvNJkgVl0KT6oi2KdSMVaDfCLGLcTCktWtQnQMAaI2FBhLjrRs+Ce4qk3O+d/v6y5j7nIE2sQAxVXzsUF6onewKb+yrQK2yJRViFmOlAdURAIBWWWggYdZ/utyXfHgvTJ3u3rrx8pXNGxCAUK0q3hWfudqtp7gDGVaBxi9XfNUGBBIAgFZZeCBh3gz/7CnAqeVOuujf+heEEkCQUsW5saEQa+eMHQRjb93IFOcgVbwXU9sG7RoAgNapJJAYDK5uuaG7Ftw8iYm0DCX+efv6S150AmGxq9Op4tOGFZ/TyhV/64aFYpkQq5gqDqiOAAC0TiWBhBnPk3DJNYXK6cHtGxvfUy0BBMHmRmSKT5tWfE7Lwt7gKuRmZOFYrFtD2i5XPFUHBBIAgNapLJAw688u5875gKfO+661cHz91e8XBaAumeJsebDDRE84jIXRMZeip4qzfQgTMbRt0K4BAGilSgMJs/7sSi/IIZfvpcPRzitWgwK1SBXnIMGivAW3USggheJfgdoV8yRiFUPlAdURAIBWqjyQME+eXwm+hHe8GvTGy3/SwgFUyq5Cp4oPrRonszWaueIW6wratssVfvUBgQQAoJVqCSTMm+EbG/xWKGx7Ay8fEEwAC2eHvVXFxyq++sI0bOtGzGXprAKNV8htG7RrAABaq7ZAYnfzRgyhhA28vDteD3r9t64ALEKqOOcvFGJuxCwKTeZJxCwT8yRiFHIFAtURAIDWqi2QMLZ5o5P4UNeBHpR6576/feO3V1RLAHOVlrcXipOFqlzZnE2u+FeBWtthJsQkV7g/qwQSAIDWqjWQMI+fXtnsJPaiPopQouQujts4WBEKzEusffnMjTi9nuL/2rEKND4htm3QrgEAaDWnQKxd3+h65yPszXV9d07319cvFwIAYDEyhcuGVEdR6ajwws9CcYRzqeIIjgsRFANAVIIJJEy8oYQhmAAAAAAAYFpBBRIm7lDCEEwAAAAAAHCS4AIJE38oMZY7739Y/+lKXwAAAAAA4ANBBhKmIaGEKbx3/eQT/UDVBAAAAAAAE8EGEmbt5kbm/ejn8tNsyiTzcdXE9ugvg8HgElO1AQAAAACtFXQgYb7+6reLw5ErQ4ko1wIeZ1CGE7/okySncgIAAAAA0DbBBxJmbXUj9R3/Qs0LJfbkiRv94tXZXH92ORcAAAAAAA0XRSBhWhBK7PJb5bfFAopfCSgAAAAAAE0VTSBhVldfLJ/vnLdBl6tql7z8VhWJG/7DQortnQubdc2gWF19tfyXc29T7//MRlr6q/ejrLwTLT95vvK5AAAAAACYUlSBxJ61m7/1vHf31GrjSorN8o0tuaRItPPH0Je/O7eVuM7WqDPcmmU2hQUNFy5sT4aH7ijVaJS6xC9b6CDvl738RSefHjVg1J1znzMLAwAAAAAwrSgDCXP75su78nogTGkcYBysqkg1J2V48e360yt9AQAAAAAwhUSRevJs5aEbOmsTKIQpjCsb0gO3ufEjd1EAAAAAAEwp2kDCrA8uF2UocbV8cyDUzH8hAAAAAACmFG3LxkHMlajfm+Gnn9U1bBMAAAAAEJeoKyT2W392pddJ/CXRwlGbTzuvMwEAAAAAMIXGBBLm8dMrm9bC4aQfhMqNpEwAAAAAAEyhUYGEsbkS689Xus67b0W1RNX+JgAAAAAAptCYGRKHWVvdSNXxPS99I1SCORIAAAAAgGk0rkJiP6olqndhaZv1nwAAAACAEzU6kNiz/tPlPrMlquHlCSQAAAAAACdqdMvGYayNw3f8i/LNVFiE/MnzlasCAAAAAOAYraiQ2M/aOMoD8+e0cSwMFRIAAAAAgBO1LpDY866Nw/n7wjwtf/3V74QSAAAAAIBjtTaQMOOhl8+u9Mpg4nPmS8zP0O9kAgAAAADgGK0OJPa828ZBMDEf3mcCAAAAAOAYrRtqOQ0bfKmO73npG+E0tp48X/lMAAAAAAAcgUDiGAQTp+fOuc/X1y8XAgAAAADgELRsHGN/K0fi9J3YyjG94SgTAAAAAABHoEJiRmvXN7pljPONZ07CCVz/yfPL3woAAAAAgEMQSJzSvnaOL8o/psJBxZPnK58LAAAAAIBDEEjMgVVNuI7/cjTSqvDOm+Gnnw0Gl7YEAAAAAMABBBJzNK6aSJTR0jHhEv/t+tMrfQEAAAAAcACBxILshROTygkLJ9yy2ufRk+crdwUAAAAAwAEEEhVZu7mRee9Xy6/4F/K6qFbwm0+eX7kkAAAAAAAOIJCogVVPjDr+YvnFz5oeUDBHAgAAAABwGAKJAKyuvlq+sLRdBhT+ogUUI6802pDCadN5t+mc/0d5yx8/vbIpAAAAAAAOIJAI1P6QwgIK59zfvPxyGEGF33JyWy7R5mikP5z3m0lHm/9++5eCaggAAAAAwDQIJCK0F1aMvF/uOKWToCL5q0v8sve7wzO9T8e/2d+dMFCzvBMUe297p3HYUP6Hk/e50R/2Zz/yWxY6jDrJ1vr65UIAAAAAAJzB/wdw/iDLYSo1HwAAAABJRU5ErkJggg==;" vertex="1" parent="1">
          <mxGeometry x="549" y="638.3100000000001" width="100" height="23.39" as="geometry" />
        </mxCell>
        <mxCell id="FvKXWItsj1egY0afTccP-28" value="" style="shape=image;verticalLabelPosition=bottom;labelBackgroundColor=default;verticalAlign=top;aspect=fixed;imageAspect=0;image=data:image/svg+xml,PHN2ZyB4bWxucz0iaHR0cDovL3d3dy53My5vcmcvMjAwMC9zdmciIGZpbGw9Im5vbmUiIHZpZXdCb3g9IjAgMCA0MzIgNzIiIGhlaWdodD0iNzIiIHdpZHRoPSI0MzIiPiYjeGE7PGcgY2xpcC1wYXRoPSJ1cmwoI2NsaXAwXzI1OV8yNjIpIj4mI3hhOzxwYXRoIGZpbGw9IndoaXRlIiBkPSJNMjI0LjM0NSA2MS40MzY5QzIyNi41NyA2Mi41NzQ2IDIyOS4wMTkgNjMuMTQzNSAyMzEuNjkgNjMuMTQzNUMyMzYuNDg4IDYzLjE0MzUgMjQwLjU0NCA2MS4yNjM4IDI0My44NTggNTcuNTA0NUMyNDcuMjcxIDUzLjc0NTIgMjQ4Ljk3OCA0OS4xNjk3IDI0OC45NzggNDMuNzc4QzI0OC45NzggMzguNDM1OSAyNDcuMjcxIDMzLjg2MDQgMjQzLjg1OCAzMC4wNTE2QzI0MC41NDQgMjYuMjkyMyAyMzYuNDg4IDI0LjQxMjYgMjMxLjY5IDI0LjQxMjZDMjI5LjAxOSAyNC40MTI2IDIyNi41NyAyNC45ODE1IDIyNC4zNDUgMjYuMTE5MkMyMjMuMDg3IDI2Ljc3NjYgMjIxLjk4NyAyNy41NTggMjIxLjA1MyAyOC40NjMzQzIyMC40NjYgMjkuMDMyNiAyMTkuMjc3IDI4LjY0MjggMjE5LjI3NyAyNy44MjQ5VjkuODMyOTdDMjE5LjI3NyA5LjI3ODI4IDIxOC44MjcgOC44Mjg2MSAyMTguMjcyIDguODI4NjFIMjEzLjQ3N0MyMTIuOTIzIDguODI4NjEgMjEyLjQ3MyA5LjI3ODI4IDIxMi40NzMgOS44MzI5N1Y2MC45NTJDMjEyLjQ3MyA2MS41MDY2IDIxMi45MjMgNjEuOTU2MyAyMTMuNDc3IDYxLjk1NjNIMjE4LjI5NUMyMTguODQ5IDYxLjk1NjMgMjE5LjI5OSA2MS41MDY2IDIxOS4yOTkgNjAuOTUyVjU5LjczMTJDMjE5LjI5OSA1OC45MTMzIDIyMC40ODUgNTguNTI1OCAyMjEuMDcxIDU5LjA5NjhDMjIxLjk5NyA2MC4wMDA0IDIyMy4wODkgNjAuNzgwNCAyMjQuMzQ1IDYxLjQzNjlaTTIzOC44MTMgNTMuMjAxMUMyMzYuNTg3IDU1LjY3NDMgMjMzLjg0MiA1Ni45MTA5IDIzMC41NzcgNTYuOTEwOUMyMjcuMjYzIDU2LjkxMDkgMjI0LjQ5MyA1NS42OTkgMjIyLjI2NyA1My4yNzUzQzIyMC4wOTEgNTAuODAyIDIxOS4wMDIgNDcuNjM2MyAyMTkuMDAyIDQzLjc3OEMyMTkuMDAyIDM5Ljk2OTMgMjIwLjA5MSAzNi44MjgzIDIyMi4yNjcgMzQuMzU1QzIyNC40OTMgMzEuODgxOCAyMjcuMjYzIDMwLjY0NTIgMjMwLjU3NyAzMC42NDUyQzIzMy44NDIgMzAuNjQ1MiAyMzYuNTg3IDMxLjg4MTggMjM4LjgxMyAzNC4zNTVDMjQxLjAzOSAzNi44MjgzIDI0Mi4xNTIgMzkuOTY5MyAyNDIuMTUyIDQzLjc3OEMyNDIuMTUyIDQ3LjYzNjMgMjQxLjAzOSA1MC43NzczIDIzOC44MTMgNTMuMjAxMVpNMTc1LjgxIDU3LjY1MjlDMTc5LjI3MiA2MS4zMTMzIDE4My42NzUgNjMuMTQzNSAxODkuMDE3IDYzLjE0MzVDMTkyLjY3NyA2My4xNDM1IDE5NS45NDIgNjIuMjc3OCAxOTguODExIDYwLjU0NjZDMjAxLjM5OSA1OS4wMTE1IDIwMy40ODEgNTYuOTUxNCAyMDUuMDU3IDU0LjM2NjNDMjA1LjM5IDUzLjgyMDIgMjA1LjE2IDUzLjExNjcgMjA0LjU4NSA1Mi44MzYzTDIwMC41MDcgNTAuODQ2N0MxOTkuOTcgNTAuNTg1MiAxOTkuMzI3IDUwLjc4ODcgMTk5LjAwMyA1MS4yODk3QzE5Ni41ODIgNTUuMDM3MiAxOTMuMzUzIDU2LjkxMDkgMTg5LjMxNCA1Ni45MTA5QzE4Ni4xNDggNTYuOTEwOSAxODMuNDI3IDU1LjgyMjcgMTgxLjE1MiA1My42NDYyQzE3OS4xNDMgNTEuNzI0OSAxNzcuOTgzIDQ5LjI2MzggMTc3LjY3IDQ2LjI2MzFDMTc3LjYwMSA0NS41OTUgMTc4LjE0NSA0NS4wMzk0IDE3OC44MTcgNDUuMDM5NEgyMDUuMDJDMjA1LjY2NSA0NS4wMzk0IDIwNi4yMDkgNDQuNTUwOSAyMDYuMjM3IDQzLjkwNjVDMjA2LjQ1MSAzOC44ODA1IDIwNC44MTkgMzMuMzU0NyAyMDEuNDA4IDI5LjY4MDZDMTk4LjI0MiAyNi4xNjg2IDE5My45NjMgMjQuNDEyNiAxODguNTcyIDI0LjQxMjZDMTgzLjMyOCAyNC40MTI2IDE3OS4wMjUgMjYuMjY3NSAxNzUuNjYxIDI5Ljk3NzRDMTcyLjI5OCAzMy42Mzc4IDE3MC42MTYgMzguMjM4IDE3MC42MTYgNDMuNzc4QzE3MC42MTYgNDkuMzY3NSAxNzIuMzQ3IDUzLjk5MjUgMTc1LjgxIDU3LjY1MjlaTTE3OS41OTcgMzkuNDAwNEMxNzguODM0IDM5LjQwMDQgMTc4LjI2NCAzOC42OTE1IDE3OC41MDUgMzcuOTY3NkMxNzkuMTc1IDM1Ljk1NzYgMTgwLjI1NiAzNC4zMDgyIDE4MS43NDYgMzMuMDE5NUMxODMuNjI1IDMxLjQzNjYgMTg1Ljg1MSAzMC42NDUyIDE4OC40MjMgMzAuNjQ1MkMxOTEuNTQgMzAuNjQ1MiAxOTQuMDEzIDMxLjQ4NjEgMTk1Ljg0MyAzMy4xNjc5QzE5Ny4zOTYgMzQuNTE2MSAxOTguMzc0IDM2LjE2ODEgMTk4Ljc4IDM4LjEyMzdDMTk4LjkyMSAzOC44MDQ3IDE5OC4zNjUgMzkuNDAwNCAxOTcuNjY5IDM5LjQwMDRIMTc5LjU5N1pNMTY3LjUwOCAyNS41OTk4QzE2OC4yMzIgMjUuNTk5OCAxNjguNzQ2IDI2LjMwNTQgMTY4LjUyMyAyNi45OTQ0TDE1Ny40ODggNjEuMjE2N0MxNTcuMzQ2IDYxLjY1NzUgMTU2LjkzNiA2MS45NTYzIDE1Ni40NzMgNjEuOTU2M0gxNTEuMDUxQzE1MC41ODkgNjEuOTU2MyAxNTAuMTc5IDYxLjY1ODQgMTUwLjAzNiA2MS4yMTg1TDE0Mi4xODMgMzcuMDE0NkMxNDEuODgyIDM2LjA4NzYgMTQwLjU3IDM2LjA4OTIgMTQwLjI3MSAzNy4wMTY5TDEzMi40ODQgNjEuMjE2MUMxMzIuMzQyIDYxLjY1NzIgMTMxLjkzMSA2MS45NTYzIDEzMS40NjggNjEuOTU2M0gxMjYuMTIyQzEyNS42NTkgNjEuOTU2MyAxMjUuMjQ5IDYxLjY1NzUgMTI1LjEwNyA2MS4yMTY3TDExNC4wNzIgMjYuOTk0NEMxMTMuODUgMjYuMzA1NCAxMTQuMzYzIDI1LjU5OTggMTE1LjA4NyAyNS41OTk4SDExOS45NDdDMTIwLjQyIDI1LjU5OTggMTIwLjgzNyAyNS45MTE0IDEyMC45NzEgMjYuMzY1M0wxMjcuOTIzIDQ5Ljk2NTVDMTI4LjIwMSA1MC45MTAzIDEyOS41MzIgNTAuOTMxNiAxMjkuODQgNDkuOTk2MkwxMzcuNjQzIDI2LjMzMjdDMTM3Ljc4NyAyNS44OTUzIDEzOC4xOTYgMjUuNTk5OCAxMzguNjU2IDI1LjU5OThIMTQ0LjE1OUMxNDQuNjIxIDI1LjU5OTggMTQ1LjAzIDI1Ljg5NjUgMTQ1LjE3NCAyNi4zMzUyTDE1Mi45MDYgNDkuOTgwNkMxNTMuMjEzIDUwLjkxNzkgMTU0LjU0NiA1MC44OTgyIDE1NC44MjQgNDkuOTUyMkwxNjEuNzczIDI2LjM2NTNDMTYxLjkwNyAyNS45MTE0IDE2Mi4zMjMgMjUuNTk5OCAxNjIuNzk3IDI1LjU5OThIMTY3LjUwOFpNMzg3LjQzNCA2Mi41NDk5QzM4NC40NjcgNjIuNTQ5OSAzODEuOTkzIDYxLjYzNDggMzgwLjAxNSA1OS44MDQ2QzM3OC4wODYgNTcuOTc0NCAzNzcuMDk2IDU1LjQyNyAzNzcuMDQ3IDUyLjE2MjNWMzIuODM2N0MzNzcuMDQ3IDMyLjI4MiAzNzYuNTk3IDMxLjgzMjMgMzc2LjA0MyAzMS44MzIzSDM3MS42N0MzNzEuMTE2IDMxLjgzMjMgMzcwLjY2NiAzMS4zODI3IDM3MC42NjYgMzAuODI4VjI2LjYwNDFDMzcwLjY2NiAyNi4wNDk0IDM3MS4xMTYgMjUuNTk5OCAzNzEuNjcgMjUuNTk5OEgzNzYuMDQzQzM3Ni41OTcgMjUuNTk5OCAzNzcuMDQ3IDI1LjE1MDEgMzc3LjA0NyAyNC41OTU0VjkuODMyOTdDMzc3LjA0NyA5LjI3ODI4IDM3Ny40OTcgOC44Mjg2MSAzNzguMDUxIDguODI4NjFIMzgyLjg2OUMzODMuNDIzIDguODI4NjEgMzgzLjg3MyA5LjI3ODI4IDM4My44NzMgOS44MzI5N1YyNC41OTU0QzM4My44NzMgMjUuMTUwMSAzODQuMzIzIDI1LjU5OTggMzg0Ljg3NyAyNS41OTk4SDM5MS43NzJDMzkyLjMyNyAyNS41OTk4IDM5Mi43NzcgMjYuMDQ5NCAzOTIuNzc3IDI2LjYwNDFWMzAuODI4QzM5Mi43NzcgMzEuMzgyNyAzOTIuMzI3IDMxLjgzMjMgMzkxLjc3MiAzMS44MzIzSDM4NC44NzdDMzg0LjMyMyAzMS44MzIzIDM4My44NzMgMzIuMjgyIDM4My44NzMgMzIuODM2N1Y0OS45MzY0QzM4My44NzMgNTIuMzYwMiAzODQuMzQzIDU0LjAxNzIgMzg1LjI4MyA1NC45MDc2QzM4Ni4yMjMgNTUuNzQ4NSAzODcuMjg2IDU2LjE2ODkgMzg4LjQ3MyA1Ni4xNjg5QzM4OS4wMTcgNTYuMTY4OSAzODkuNTM3IDU2LjExOTUgMzkwLjAzMSA1Ni4wMjA2QzM5MC4xOTIgNTUuOTc2OSAzOTAuMzQ3IDU1LjkzMSAzOTAuNDk5IDU1Ljg4MzFDMzkxLjA1NyA1NS43MDY0IDM5MS42ODIgNTUuOTczMSAzOTEuODc3IDU2LjUyNTNMMzkzLjMzNCA2MC42NDQ3QzM5My41MTggNjEuMTY1MiAzOTMuMjQ5IDYxLjczOTggMzkyLjcxNyA2MS44ODk5QzM5MS4xNTkgNjIuMzI5OSAzODkuMzk4IDYyLjU0OTkgMzg3LjQzNCA2Mi41NDk5Wk0yODcuNDk5IDQ3LjU2MjFDMjg3LjQ5OSA1Mi4wMTM5IDI4NS44NDIgNTUuNzIzOCAyODIuNTI4IDU4LjY5MTZDMjc5LjI2MyA2MS42NTk1IDI3NS4yMDcgNjMuMTQzNSAyNzAuMzYgNjMuMTQzNUMyNjYuNTUxIDYzLjE0MzUgMjYzLjExMyA2Mi4wMDU4IDI2MC4wNDYgNTkuNzMwNEMyNTcuMTk2IDU3LjU1ODcgMjU1LjE5NCA1NC43ODcgMjU0LjA0IDUxLjQxNTJDMjUzLjg1NSA1MC44NzI5IDI1NC4xMzggNTAuMjg5NiAyNTQuNjY4IDUwLjA2OTFMMjU4Ljc5NCA0OC4zNDk2QzI1OS40MiA0OC4wODg3IDI2MC4xMyA0OC40MzYyIDI2MC4zNTggNDkuMDc0OEMyNjEuMTU3IDUxLjMxMTkgMjYyLjMxNSA1My4wODMgMjYzLjgzIDU0LjM4ODJDMjY1LjY2MSA1NS44NzIyIDI2Ny44MzcgNTYuNjE0MSAyNzAuMzYgNTYuNjE0MUMyNzMuMTMgNTYuNjE0MSAyNzUuNTI5IDU1Ljc0ODUgMjc3LjU1NyA1NC4wMTcyQzI3OS41MzUgNTIuMjM2NSAyODAuNTI1IDUwLjA4NDggMjgwLjUyNSA0Ny41NjIxQzI4MC41MjUgNDUuMDM5NCAyNzkuNDg2IDQyLjkxMjQgMjc3LjQwOCA0MS4xODEyQzI3NS4zOCAzOS40NDk5IDI3Mi45MzIgMzguNTg0MyAyNzAuMDYzIDM4LjU4NDNIMjY2LjgxNUMyNjYuMTkxIDM4LjU4NDMgMjY1LjY4NSAzOC4wNzg0IDI2NS42ODUgMzcuNDU0NFYzMy4zMzMyQzI2NS42ODUgMzIuNzA5MiAyNjYuMTkxIDMyLjIwMzMgMjY2LjgxNSAzMi4yMDMzSDI2OS41NDRDMjcyLjI2NCAzMi4yMDMzIDI3NC40OSAzMS40NjEzIDI3Ni4yMjEgMjkuOTc3NEMyNzcuOTUyIDI4LjQ0NCAyNzguODE4IDI2LjQ2NTQgMjc4LjgxOCAyNC4wNDE2QzI3OC44MTggMjEuODE1NyAyNzguMDAyIDIwLjAxMDMgMjc2LjM3IDE4LjYyNTNDMjc0LjczNyAxNy4yNDAyIDI3Mi41ODYgMTYuNTQ3NyAyNjkuOTE0IDE2LjU0NzdDMjY1Ljk4OSAxNi41NDc3IDI2My4xOTUgMTguMzc5NyAyNjEuNTMzIDIyLjA0MzdDMjYxLjI2NSAyMi42MzQ0IDI2MC41ODMgMjIuOTM4NCAyNTkuOTg1IDIyLjY4NTVMMjU1Ljc2NyAyMC44OTkxQzI1NS4yMTMgMjAuNjY0NCAyNTQuOTM2IDIwLjAzNDQgMjU1LjE3NyAxOS40ODI5QzI1Ni4zNCAxNi44MjEzIDI1OC4xMTEgMTQuNjMxMSAyNjAuNDkxIDEyLjkxMjFDMjYzLjE2MyAxMC45ODMgMjY2LjMwNCAxMC4wMTg0IDI2OS45MTQgMTAuMDE4NEMyNzQuNDE2IDEwLjAxODQgMjc4LjIgMTEuMzUzOSAyODEuMjY3IDE0LjAyNUMyODQuMjg0IDE2LjU5NzIgMjg1Ljc5MyAxOS45MzYxIDI4NS43OTMgMjQuMDQxNkMyODUuNzkzIDI4LjM3MTYgMjg0LjAxNCAzMi4wNjM0IDI4MC40NTYgMzQuNTAxN0MyNzkuODYyIDM0LjkwODkgMjc5Ljg3OCAzNS44NDcxIDI4MC41MDYgMzYuMTk5NEMyODMuNDggMzcuODY2NCAyODQuNDkzIDM5LjE4MTcgMjg1LjE5OSA0MC4yMTY2QzI4Ni43MzIgNDIuMzkzIDI4Ny40OTkgNDQuODQxNSAyODcuNDk5IDQ3LjU2MjFaTTMwMi4zNTcgNDUuODU1NkMzMDAuNTI3IDQ3LjE5MTEgMjk5LjYxMiA0OC44NDgyIDI5OS42MTIgNTAuODI2OEMyOTkuNjEyIDUyLjYwNzUgMzAwLjM1NCA1NC4wOTE0IDMwMS44MzggNTUuMjc4NkMzMDMuMzcxIDU2LjQ2NTcgMzA1LjE1MiA1Ny4wNTkzIDMwNy4xOCA1Ny4wNTkzQzMxMC4wNDkgNTcuMDU5MyAzMTIuNTk2IDU1Ljk5NTggMzE0LjgyMiA1My44Njg4QzMxNi45NTIgNTEuODc4MSAzMTguMDg1IDQ5LjU2MjQgMzE4LjIyMSA0Ni45MjE4QzMxOC4yMzkgNDYuNTc2NyAzMTguMDggNDYuMjQ2NiAzMTcuNzk3IDQ2LjA0ODRDMzE1LjcwNyA0NC41ODQzIDMxMi44ODUgNDMuODUyMiAzMDkuMzMyIDQzLjg1MjJDMzA2LjU2MiA0My44NTIyIDMwNC4yMzcgNDQuNTIgMzAyLjM1NyA0NS44NTU2Wk0zMDguNDQxIDI0LjQxMjZDMzEzLjQ4NyAyNC40MTI2IDMxNy40NjkgMjUuNzcyOSAzMjAuMzg3IDI4LjQ5MzVDMzIzLjMwNSAzMS4xNjQ2IDMyNC43NjUgMzQuODQ5NyAzMjQuNzY1IDM5LjU0ODhWNjAuOTUyQzMyNC43NjUgNjEuNTA2NiAzMjQuMzE1IDYxLjk1NjMgMzIzLjc2IDYxLjk1NjNIMzE4Ljk0M0MzMTguMzg4IDYxLjk1NjMgMzE3LjkzOSA2MS41MDY2IDMxNy45MzkgNjAuOTUyVjU2LjkxMDlDMzE1LjExOSA2MS4wNjYgMzExLjM2IDYzLjE0MzUgMzA2LjY2MSA2My4xNDM1QzMwMi42NTQgNjMuMTQzNSAyOTkuMjkgNjEuOTU2MyAyOTYuNTcgNTkuNTgyQzI5My44OTkgNTcuMjA3NyAyOTIuNTYzIDU0LjIzOTggMjkyLjU2MyA1MC42Nzg0QzI5Mi41NjMgNDYuOTE5MSAyOTMuOTczIDQzLjkyNjQgMjk2Ljc5MiA0MS43MDA1QzI5OS42NjEgMzkuNDc0NiAzMDMuNDcgMzguMzYxNyAzMDguMjE5IDM4LjM2MTdDMzExLjUxNiAzOC4zNjE3IDMxNC4zMzkgMzguODUxOSAzMTYuNjg4IDM5LjgzMjRDMzE3LjM5OCA0MC4xMjg4IDMxOC4yMzUgMzkuNjMzIDMxOC4xNjkgMzguODY2NUMzMTcuOTc3IDM2LjYzNjYgMzE3LjMwNyAzNC42NjIyIDMxNS40MTYgMzMuMDE5NUMzMTMuNTM2IDMxLjMzNzcgMzExLjMzNSAzMC40OTY4IDMwOC44MTIgMzAuNDk2OEMzMDUuMzIyIDMwLjQ5NjggMzAyLjQ5NSAzMS44NDcyIDMwMC4zMzQgMzQuNTQ3OUMyOTkuOTk4IDM0Ljk2NzcgMjk5LjQwMiAzNS4wOTM4IDI5OC45NDcgMzQuODA3M0wyOTQuNjQxIDMyLjA5NjdDMjk0LjE1NiAzMS43OTEyIDI5NC4wMjMgMzEuMTQgMjk0LjM3NyAzMC42ODk0QzI5Ny42NyAyNi41MDQ5IDMwMi4zNTggMjQuNDEyNiAzMDguNDQxIDI0LjQxMjZaTTM2My4zMDEgNjEuOTU2M0MzNjMuODkxIDYxLjk1NjMgMzY0LjM2OCA2MS40Nzg1IDM2NC4zNjggNjAuODg5MlYyNi42NjY5QzM2NC4zNjggMjYuMDc3NSAzNjMuODkxIDI1LjU5OTggMzYzLjMwMSAyNS41OTk4SDM1OC42MDlDMzU4LjAyIDI1LjU5OTggMzU3LjU0MiAyNi4wNzc1IDM1Ny41NDIgMjYuNjY2OVY0NS43MDcyQzM1Ny41NDIgNDguNzc0IDM1Ni42MjcgNTEuNDIwMyAzNTQuNzk3IDUzLjY0NjJDMzUyLjk2NyA1NS44MjI3IDM1MC42OTEgNTYuOTEwOSAzNDcuOTcxIDU2LjkxMDlDMzQyLjEzNCA1Ni45MTA5IDMzOS4xNDEgNTMuOTQzIDMzOC45OTMgNDguMDA3M1YyNi42NjY5QzMzOC45OTMgMjYuMDc3NSAzMzguNTE1IDI1LjU5OTggMzM3LjkyNiAyNS41OTk4SDMzMy4yMzRDMzMyLjY0NSAyNS41OTk4IDMzMi4xNjcgMjYuMDc3NSAzMzIuMTY3IDI2LjY2NjlWNDguNDUyNUMzMzIuMTY3IDUzLjE1MTYgMzMzLjM1NCA1Ni43ODczIDMzNS43MjggNTkuMzU5NEMzMzguMTUyIDYxLjg4MjEgMzQxLjU5IDYzLjE0MzUgMzQ2LjA0MiA2My4xNDM1QzM0OC4zNjcgNjMuMTQzNSAzNTAuNTkzIDYyLjU0OTkgMzUyLjcyIDYxLjM2MjdDMzUzLjkzNCA2MC43MDA1IDM1NC45NzEgNTkuOTQ2IDM1NS44MzEgNTkuMDk5QzM1Ni4zNzkgNTguNTU5NiAzNTcuNTQyIDU4LjkyODMgMzU3LjU0MiA1OS42OTcyVjYwLjg4OTJDMzU3LjU0MiA2MS40Nzg1IDM1OC4wMiA2MS45NTYzIDM1OC42MDkgNjEuOTU2M0gzNjMuMzAxWk00MDAuNjM3IDguODI4NjFDNDAwLjA4MiA4LjgyODYxIDM5OS42MzIgOS4yNzgyOCAzOTkuNjMyIDkuODMyOTdWNjAuOTUyQzM5OS42MzIgNjEuNTA2NiA0MDAuMDgyIDYxLjk1NjMgNDAwLjYzNyA2MS45NTYzSDQwNS40NTRDNDA2LjAwOSA2MS45NTYzIDQwNi40NTggNjEuNTA2NiA0MDYuNDU4IDYwLjk1MlY0Mi4xNDU3QzQwNi40NTggMzkuMDc4OSA0MDcuMzk4IDM2LjQwNzggNDA5LjI3OCAzNC4xMzI0QzQxMS4yMDcgMzEuODA3NiA0MTMuNTU3IDMwLjY0NTIgNDE2LjMyNyAzMC42NDUyQzQyMi4xMTQgMzAuNjQ1MiA0MjUuMDA4IDMzLjkwOTggNDI1LjAwOCA0MC40MzkyVjYwLjk1MkM0MjUuMDA4IDYxLjUwNjYgNDI1LjQ1NyA2MS45NTYzIDQyNi4wMTIgNjEuOTU2M0g0MzAuODI5QzQzMS4zODQgNjEuOTU2MyA0MzEuODM0IDYxLjUwNjYgNDMxLjgzNCA2MC45NTJWMzkuMTAzNkM0MzEuODM0IDM0LjQwNDUgNDMwLjYyMiAzMC43OTM2IDQyOC4xOTggMjguMjcwOUM0MjUuODI0IDI1LjY5ODcgNDIyLjQxMSAyNC40MTI2IDQxNy45NTkgMjQuNDEyNkM0MTUuNjM0IDI0LjQxMjYgNDEzLjM4NCAyNS4wMDYyIDQxMS4yMDcgMjYuMTkzNEM0MTAuMDI0IDI2Ljg1MzggNDA5LjAwOSAyNy42MDYyIDQwOC4xNjIgMjguNDUwNEM0MDcuNjE4IDI4Ljk5MzQgNDA2LjQ1OCAyOC42Mjc4IDQwNi40NTggMjcuODU4OVY5LjgzMjk3QzQwNi40NTggOS4yNzgyOCA0MDYuMDA5IDguODI4NjEgNDA1LjQ1NCA4LjgyODYxSDQwMC42MzdaIiBjbGlwLXJ1bGU9ImV2ZW5vZGQiIGZpbGwtcnVsZT0iZXZlbm9kZCIvPiYjeGE7PHBhdGggZmlsbD0id2hpdGUiIGQ9Ik03Ny4yMjExIDU3LjAyMTlDNzYuNjg5MiA1OS4wMDcgNzMuODcyNCA1OS4wMDcgNzMuMzQwNSA1Ny4wMjE5TDY3LjE0NTMgMzMuOTAxMUM2Ny4wMjU2IDMzLjQ1NDEgNjcuMDI1NiAzMi45ODM0IDY3LjE0NTMgMzIuNTM2NEw3Mi42MzU0IDEyLjA0NzNDNzMuMTIwNyAxMC4yMzYgNzQuNzYyIDguOTc2NTYgNzYuNjM3MiA4Ljk3NjU2SDg0LjY5NTVDODcuNDE5NyA4Ljk3NjU2IDg5LjQwMjQgMTEuNTYwNSA4OC42OTc0IDE0LjE5MThMNzcuMjIxMSA1Ny4wMjE5Wk0yNC4wNjcgMzMuODYyNUMyNC4xODY3IDMzLjQxNTUgMjQuMTg2NyAzMi45NDQ4IDI0LjA2NyAzMi40OTc4TDE4LjU4NzMgMTIuMDQ3M0MxOC4xMDIgMTAuMjM2IDE2LjQ2MDYgOC45NzY1NiAxNC41ODU1IDguOTc2NTZINi41MjcxQzMuODAyOTcgOC45NzY1NiAxLjgyMDIzIDExLjU2MDUgMi41MjUyOCAxNC4xOTE4TDEzLjk5MTIgNTYuOTgzM0MxNC41MjMxIDU4Ljk2ODQgMTcuMzM5OSA1OC45Njg0IDE3Ljg3MTggNTYuOTgzM0wyNC4wNjcgMzMuODYyNVoiIGNsaXAtcnVsZT0iZXZlbm9kZCIgZmlsbC1ydWxlPSJldmVub2RkIi8+JiN4YTs8cGF0aCBmaWxsPSJ3aGl0ZSIgZD0iTTQxLjUxOTQgNjEuNjgwMkM0MS4zMzc4IDYyLjM1NzkgNDEuODQ4NSA2My4wMjM1IDQyLjU1MDEgNjMuMDIzNUg0OC42OTU3QzQ5LjM5NzQgNjMuMDIzNSA0OS45MDgxIDYyLjM1NzkgNDkuNzI2NSA2MS42ODAyTDQ2LjY1MzcgNTAuMjEyM0M0Ni4zNzExIDQ5LjE1NzggNDQuODc0NyA0OS4xNTc4IDQ0LjU5MjIgNTAuMjEyM0w0MS41MTk0IDYxLjY4MDJaIiBjbGlwLXJ1bGU9ImV2ZW5vZGQiIGZpbGwtcnVsZT0iZXZlbm9kZCIvPiYjeGE7PHBhdGggZmlsbD0id2hpdGUiIGQ9Ik0zNS40MDAxIDY5LjAyMjRDMzQuOTI5NSA3MC43Nzg3IDMzLjMzNzkgNzIgMzEuNTE5NiA3MkgyMy4yMDEzQzIwLjU1OTcgNzIgMTguNjM3MSA2OS40OTQzIDE5LjMyMDcgNjYuOTQyOEwzNi4zODUzIDMuMjU2OEMzNi45MDAxIDEuMzM1NzkgMzguNjQwOSAwIDQwLjYyOTcgMEg1MC41Mjk1QzUyLjUxODMgMCA1NC4yNTkxIDEuMzM1NzkgNTQuNzczOSAzLjI1NjhMNzEuODM4NSA2Ni45NDI4QzcyLjUyMjEgNjkuNDk0MyA3MC41OTk1IDcyIDY3Ljk1NzkgNzJINTkuNjM5NkM1Ny44MjEzIDcyIDU2LjIyOTcgNzAuNzc4NyA1NS43NTkxIDY5LjAyMjRMNDcuNDU5MiAzOC4wNDdDNDYuOTQ0IDM2LjEyNCA0NC4yMTUyIDM2LjEyNCA0My43IDM4LjA0N0wzNS40MDAxIDY5LjAyMjRaIiBjbGlwLXJ1bGU9ImV2ZW5vZGQiIGZpbGwtcnVsZT0iZXZlbm9kZCIvPiYjeGE7PHBhdGggZmlsbD0id2hpdGUiIGQ9Ik03Ny4yNDQ1IDU3LjAyMThDNzYuNzEyNiA1OS4wMDY5IDczLjg5NTggNTkuMDA2OSA3My4zNjM5IDU3LjAyMThMNjcuMTY4NyAzMy45MDFDNjcuMDQ4OSAzMy40NTM5IDY3LjA0ODkgMzIuOTgzMyA2Ny4xNjg3IDMyLjUzNjJMNzUuMDY0IDMuMDcwN0M3NS41NDkzIDEuMjU5NDUgNzcuMTkwNyAwIDc5LjA2NTggMEg4Ny4xMjQyQzg5Ljg0ODMgMCA5MS44MzEgMi41ODM5NiA5MS4xMjYgNS4yMTUyNkw3Ny4yNDQ1IDU3LjAyMThaTTI0LjA5MDQgMzMuODYyNEMyNC4yMTAxIDMzLjQxNTQgMjQuMjEwMSAzMi45NDQ3IDI0LjA5MDQgMzIuNDk3N0wxNi4yMDU0IDMuMDcwN0MxNS43MjAxIDEuMjU5NDUgMTQuMDc4OCAwIDEyLjIwMzYgMEg0LjE0NTI2QzEuNDIxMTQgMCAtMC41NjE2MDYgMi41ODM5NiAwLjE0MzQ0OSA1LjIxNTI2TDE0LjAxNDYgNTYuOTgzMkMxNC41NDY1IDU4Ljk2ODMgMTcuMzYzMyA1OC45NjgzIDE3Ljg5NTIgNTYuOTgzMkwyNC4wOTA0IDMzLjg2MjRaIiBjbGlwLXJ1bGU9ImV2ZW5vZGQiIGZpbGwtcnVsZT0iZXZlbm9kZCIvPiYjeGE7PC9nPiYjeGE7PGRlZnM+JiN4YTs8Y2xpcFBhdGggaWQ9ImNsaXAwXzI1OV8yNjIiPiYjeGE7PHJlY3QgZmlsbD0id2hpdGUiIGhlaWdodD0iNzIiIHdpZHRoPSI0MzIiLz4mI3hhOzwvY2xpcFBhdGg+JiN4YTs8L2RlZnM+JiN4YTs8L3N2Zz4=;" vertex="1" parent="1">
          <mxGeometry x="325" y="545.0799999999999" width="149" height="24.84" as="geometry" />
        </mxCell>
        <mxCell id="FvKXWItsj1egY0afTccP-33" value="" style="shape=image;verticalLabelPosition=bottom;labelBackgroundColor=default;verticalAlign=top;aspect=fixed;imageAspect=0;image=https://encrypted-tbn0.gstatic.com/images?q=tbn:ANd9GcTyp7FFYRwNKbTumOgu4zGIJOQpv8y0ngkLHw&amp;s;" vertex="1" parent="1">
          <mxGeometry x="608" y="435" width="41" height="35.56" as="geometry" />
        </mxCell>
        <mxCell id="FvKXWItsj1egY0afTccP-34" value="" style="shape=image;verticalLabelPosition=bottom;labelBackgroundColor=default;verticalAlign=top;aspect=fixed;imageAspect=0;image=https://upload.wikimedia.org/wikipedia/commons/thumb/d/d5/Tailwind_CSS_Logo.svg/1024px-Tailwind_CSS_Logo.svg.png;" vertex="1" parent="1">
          <mxGeometry x="560" y="439.3299999999999" width="44" height="26.9" as="geometry" />
        </mxCell>
        <mxCell id="FvKXWItsj1egY0afTccP-35" value="" style="shape=image;verticalLabelPosition=bottom;labelBackgroundColor=default;verticalAlign=top;aspect=fixed;imageAspect=0;image=https://www.svgrepo.com/show/354113/nextjs-icon.svg;" vertex="1" parent="1">
          <mxGeometry x="520" y="438.28" width="29" height="29" as="geometry" />
        </mxCell>
        <mxCell id="FvKXWItsj1egY0afTccP-36" value="" style="shape=image;verticalLabelPosition=bottom;labelBackgroundColor=default;verticalAlign=top;aspect=fixed;imageAspect=0;image=https://koamtac.com/wp-content/uploads/android_logo-768x768.png;" vertex="1" parent="1">
          <mxGeometry x="250" y="346" width="39" height="39" as="geometry" />
        </mxCell>
        <mxCell id="FvKXWItsj1egY0afTccP-37" value="" style="shape=image;verticalLabelPosition=bottom;labelBackgroundColor=default;verticalAlign=top;aspect=fixed;imageAspect=0;image=https://cdn.freebiesupply.com/images/large/2x/apple-logo-transparent.png;" vertex="1" parent="1">
          <mxGeometry x="620" y="345.51" width="29" height="28.98" as="geometry" />
        </mxCell>
        <mxCell id="FvKXWItsj1egY0afTccP-38" value="" style="shape=image;verticalLabelPosition=bottom;labelBackgroundColor=default;verticalAlign=top;aspect=fixed;imageAspect=0;image=https://upload.wikimedia.org/wikipedia/commons/thumb/e/e1/Google_Chrome_icon_%28February_2022%29.svg/480px-Google_Chrome_icon_%28February_2022%29.svg.png;" vertex="1" parent="1">
          <mxGeometry x="444" y="360" width="30" height="30" as="geometry" />
        </mxCell>
        <mxCell id="FvKXWItsj1egY0afTccP-39" value="" style="shape=image;verticalLabelPosition=bottom;labelBackgroundColor=default;verticalAlign=top;aspect=fixed;imageAspect=0;image=data:image/webp,UklGRk4TAABXRUJQVlA4TEITAAAvcsJiEP+AoG3bpO1Anj+PKzQIBCHi/zeTDASiNpKyq4CiAJzh/4eDC8jbWxRAljQIEwpfDhSEAUS8ysAOEyJAACTg2AD8ehwGbRtJivnT3v8OQERMgMfrTAfYCe3TviND8uPebtvO29a2tW5BsWwQEhklAgfUMZT//ztti33AM5bLeo3o/wTQFgC0blthy5tnRWkaN0HICPf/v3NJTGPORbw4ov8TAIf/D/8f/j/8f/j/8P/h/8P/h/8P///f/wdmn56e0tu+q/6l7/Kf36vxfsJ5CtWp9PzHGJgvQ/Umaaoc8BYdSX+tvN/W8/l8/r1uY6aT+BD/03hvLanj43SlLcx8Ev/hF97byg5ba1o2MUXn0U+8t5UOpdAm5ot4jpfGe6tDfd3GJG7DK+8+IPC6jZfBaewb720JkTVvYx5cxol3myNWFoWl9xe98m5zRCcFpuotfOX9N4RXUuCbs3Dj/QcMOGpwcBVuvP+IEeuigZ7CjfdbHwKuGhwcxcqNe4wZVWY/ceLGGYNWlaV6iYlbfRRcFUxO4satBcOukqOPcNtiPs5PyS8fsXDrjM9lLiJzs3+yq4dw2zTjk9FDnLg5jXT5Fw3nZsPI9V80lm15qOu/ZiRu95E6peYf6raKkZOmuofE7Xmog+boHqrAh6qa5B1u3L5iaEqv8I6L4DjUXjP/q4NTuB9q0fh7XddVn5AVfairZAagTliYmekiDsEEK0bOVJqjf/KrF/EGicLjUBfJDS+NX6feGSyK/UhO5TNO3P7LF1wVu5GKoD1jpnDpPcGewitGtm12w0QpVUewKOpImZuPHYni5AiuiuNI65aaAJhq8QOJyv1AiXe3YwKAPeW9GzhK0kD1DjunjncvutENVEkfJ5GkreeSn3Cn6ZIbWBVXjNufnrC9818fqKwDaf1fH26S8z/W4AX2kvLJENB7gSLZfzaTEXjBu0q/t6MsuoGsUveWVARukDUX2H0ViRtYVXB/fpUkcIODytf+kBQJ/GBSSQZgZ1vKb3CEd5XBAiDbSxcBT5hVgg3AcM2FmQumCr6QVasVD7sK7nBVWcC5DiroXZLKl3e5qyTvklUG78KqwbmsOtW5DCoLONekgt7lrvLlXbJK8i6sOjiXVad3LoNOdS5JZQHneldB75JVzt6FVUfnsuoMzmXQ6Z1L0gHnelfJ3iWr4L+D7mGbovT4d+u7/Oe3NX7Y6vy6+7s97cu5mpmtv1/T99BNc/iLpak2Km32v1X6Y7zfsn8D7TXpb5X+NAZW/2frT09Pu7Tbkv40Ci1//xTN7tM9Pe1S6qP1qVFoaz3X9R1y9rD+9JR2A+xzfi2lnM/nc611NTN+nO9LlepT/+65aDB0f0op51zKn/P5d13NGt81jJ0qt9eSOt71bG9ouw1PT7uU82v5cz7Xatb4NsclBh5xb6oMXP2bZ5WsQ7lR7UOlys2tdNzt6xtedx/tjWJDvAUY7kyVsda/dyj9NdRCdcHAt8rNlju2dnvD6+4Do3oXNzHQP+onvm/n87lKWL91Vk0ZKVNtGLefuLmVDmF6h9bfyVTPCPcWcMCH+8a39bXjrf9U8PCdM2j2A7nJfJx94+bq0K7v8PSOyTxuoX7G+/3Ct3PCnUVx7d84SZMGOlFdMKpXbm4HqMt7TAAy1QXhe+rN30tGkvWG+48Clm+cu6aPs6PaMOq+cbPdIPcPKgBTGeItYI93J5K0hK2usG+cLLliXJP5IP3E7WtHoL3HHTLVOW6ivuBtv5DksWP7VcCn7xuW1nEmqo8Y01du/4nQnx+UbqrfCHfqDW/dSLZnKKncf9usOsdhnGrrY6TG7QWx5YPrRLXHLQH+JjWS5lAmyeHbZtA5DGOyPYacKCwIzh+wqWaEZ+oPAPCDJH92SBdJ+bZJOmmUF6pnDHmisGAYtXmc6WYAmEiyQOv8Vrrr7AZxU5mP0C8UHhGeojLCJ8rNAUwkeYB4+V7KKlcMulCdMWBfKbzgsxnCnfo9gIlke4bYqd1/27DqOkimesaAbhRa/3S7uEVXAEwk2w3qRZS+a1adX2O4qcwHcKPQHAPmmBnhmXIDMJG0G9ROcf+uGXTKGAvVGfFuVN4w4iHGw7rpHJhImkNuoopHNkzzDRFvU7Ao6eyHSFTPiHej8oAhjyEF4RPlB2AiaQ55pvj4uKQ/hV+kaM9dZzeEqczjulF5xJiXCEO4Uz4DLyTNIXdT7R4Vr9xKYk3WwYgT1RnhfaXS+iBrRI77LTPHnmRz6BeKDQ/qS6PwZAyrriM41RXxF0odY3YG/kZ4pnyPWyPbDfod1WWM/e/01ZqoPZmy6vwawVTN406UFgyaIjysm6zAjeQNgSbzIbyR69dqonq0ZNApA7xQXRA+UVox6iFgRviJaoMbyWcETlTPGNGN5OFLNVG+iCGjzj7Om8oQvqfUfJiqMw9zyr0byYJApzwNsZIs+Eo7A8+G3HV2cQvVHuZNkzEs9Rnhq+yAC8mCSJNVjHgiueJLbRGLIaiD8Ex1QXQ3SiuGTTpDeKZ6xonkEZET5XmEiaT5l2piaGfHorKGuakM4Qu1Ps6i24W5qcwnkhdEOuUrBtyTbI6vtDM2mLGy6q+whWoPe6G2YFyTzQg/UZ1eSFoPMV0awBvJA77Uy18iaQ5Re6oLop1aw7iJcg9zqsuNpDkiJ8pnxLuRLPhSdwvqzThoUpSpDOEm2g+0yArCTWVuZHNEOvU+wEqy4mudGQxmXjQ9aKLawyZqZ4zrVFsPyxS3ZCQPCDXdjPgTSfMvVg1CO6rkilinuiDaKfaBsiwj2k11qCQLQifKzeMmks3xte4MjnZcJTXIVNbDTHTEwKYyhC8UzyeSM0Kd+ozwPUke8MXeB5GYcaP0GDNRnRCdqTUfKFG9C3OKbSFpPcZ0FeHeSBZ8tY9BCcxMmn2IU31EtJuoYOBFNSPcVEeS5gidqPcwN5IXfLlrDIGdB80uZFFZDztRaz6QU+1hmeK5kUwIvVFfEF5Jmn+91hASQy6SKyIz1QnRTnHBwIuqINpNZSQLQrvpDOETyeb4ejOSBAytkhpiqhnhi8h8IKfYPGyhtl1JHhG7UO9hLySZ8fXuEShg6VVSIl4oNg9zimcMvKgyoncMtB6TqS+IvpFkwRfcdSWBqTdKU4CbKiN8UflATrEh3ALMEeqmq4h2I3nBA1FSBVsPGgQuFBvCneIZAy+qFPbCwD1iL5SbR3Ujaf1ByPN56sHcKvkV4FR7XFalgZziGdFuAQWxE/UZ0ReSzfEgRDCZ0hywqGbEm8gw8KLysIX6ilin/ojoiST3eBTEpCQx6BPF5nGJ4uNAO4oLohP15kGmsx41kWTBV31bBpMXyRywqjLiF5UPZCLzMAu4IXaivDmC9yR5wZf9uulik0lclyk2DHgVrRg3U5wRPVFfEJuoPyDYG0nrXzfbNJqUqJyhN9V+gD3Fx4FMZIj2prsg2HQzgt1ImuPrftkUTFokSZcpnhHvpkrjTBSnsIVy86CJcvMgN5K84Qt/3FRNMkWF3lQe143iK4Z1imdE76m/IdapT4jtK0ke8JU/bAKL91QmXaa4ILyvVP8aZ1F5mOkKgquuIHgmyYIv/W0LmbQoKvQmMo9bKT8MkykuiJ4orwjOlBuCJ5I84ot/3YAWOZU7XaY4I3ymPo3iJrIe5ZSbR5nOgyaSvOCrX//5imKG3kSG8JmBfZSF4ozoRZcRnCkviJ1I0vqX77DhyyJTuC5RnMNmBq4YNFFsiM6UHxFtMkPsD5I0x5ffN8wGZQoL9IvIED0zsg7STbWLujWZITpT7jE/SNIcD2C978sgE1jXOcUpaiZJO6iOg5wonhF8a5R7mMkKQm+NZHM8guU+tCdTmKFfRBXBM0may8oYmWoPujXKC6IT1YbQWyPZbngI+/UusscEMwJNlIJmkjTHUZWHcFMVxP5olFeEL7IU4o0kn/EgHu9azMncbh6Qqa2InUnSHPj5mSrF1mNeqG8e1qmeEelGks94FP0u7oxxEyQEVlGKmUlydQAXVRphojojdGLgAeFZ1TzCjSQPeByvL0VjJm4vCHRqKyL7TJK1A0D9PIlqQ+iJgTPiL6qCQDeSLHggZXlltsW5/YLILEoRfSXJn3hXto9zk6WIPjPQfICryBDoRpIFD2V6Zamm2DbzkKoxBPpKkgVBOawb1TMCfWVkRvyN4hzgRpIFj2WlFzhYMnFzc4RSmwPcSLLgs11IXjUecDOSJpsxYBYZ9G4kWfBohlfQEOf2G0KTxqB3I9me8fFPVYmaSKuUFuh/NJJF1nyEoyjrbo0kCx7P6QUOZrhte0bsQTPrbo2k3XDnUXUOmkgrlFrXnUi2dKL6gBEvGoP81kjyGY/o7QU0o3LzM4IvGpf9IElz3HtQrTETaTvTZKi9kjR3qlcMWTVZ9oNvn/GQVnrGoxETNz8jukoq1BNJXjru3quuPWIizU+UGtTJSF46VpmPYRpXvZBkS3hQhZ4tvQkTNz8j3CQHUZ9JsmBjVzEFTKS5U+uqF5IsQKa64PPMEE8kaTc8rEJPmMSAiVtbwufYaXwl2Z6x2VRH3Yk0h2lmaL2SbAlwUxkGXSV70YkkzfHACj3hXHc3cas5PodBmhpJc2w/qq5d5JVcHROl5pp9I1kdwInqPMpF0iW9kmTteGiFnnCWnU3cWjtGrIoqOZHksUOYVCyaZOSlw6k9QNlPJHkEAKd6xqhHxQqlG0ke8ehKfsIke+oztx4x5k/FUeCVZDtAu6quLugnkkcApjEok5G0hLcm82EOil+K1EjygAc4PWGK+/GVGy1h0MMQL43k6hAfVLS0pU+NbAcAL9TuBX0hyZ8dbzPVBcO64iyYSNJueIjj8oj5Q3by0rjx2DGqK85bvJLksUPdTUXOfs/T1EjaDYA3zYztL41k2+NdN5VhYBvAK0nWjgdZ8AlT3INXbrSEgWtUnxpJSwjc68j1z+s+pX3+Y3x76QCwUNp8U6okeel4f6E6j1QE65aXRrId8EBP9IiZwrv1qfH+VjB0Eqx3ZSPJY0doDdjYDnibqS3Y2E8kaQkfOtUVI/frNva7vJLkesNDLdcnzBTfqZ4a72+lY/C6jf2DPhlJWkKw2xjV8dZNY7i/T40kjx0fm8yHwqvgdEc/kWQreLgFnzDTRd6kPxW+v5WO4f26bXUAT/ncSLIVxO+uA1jC+wu1u7v61Eiy3nBnpnrG4HUbZ38n/ebb6njEIz5h5pz6H6sT8sZWOj5j3kY2a3x/7hgxh7XS8X6mdsad/dVI0va4103mo3XbRtbf57XxrSU86uH6jJnpNoWqVYfvzFtrwmctgo+rY9CdhbTS8WE3jflHfWok2UrH3QvVM4b3KvjYMh55SfTsYcbvaQh9Vx90XT9M3zfizfW14xPvTNPmhHHddDV33HmiNuP9PjWSbKXj/h0/bmZma631fD6fj8XHA15NVDMe/nClV96xnXPHZy+2zUrH2NkkVna426k1vJsq37bSsfWWnp6enjr+Ib3YtnZM+B7sJ3wTmqcd/hE917vWkvAJ8+92n51fn7DVRA6gTyvfttLxz7//ud7Rakn4VgzTFcsPlDxPQwVLe3ot5/P5+Jo6Pm3K5Xw+n48l7zqEE7VH9NfKd1vp+Ev2Xco55/SE78kuDOk8I2ImIkLEeT6nOHQV/n07tddSG9+trx3/cmqiD9vvhH9BfWFkfe34V1RvOitP+BfVheJaEv5lNVPs+BdWN1HBv7J+si6JZ4msHMGxCindwLN+srJ4lsDKCRp/DdP3DenvjDinIVRLSImg6YfvzJoFoxUnVpaGl/4UVk9G3Fg5QbNPlZFGdFMiaPWpUkvzNHQVrFyoLI2unyjFqYKpmeIEbT4ZlZcAxrqJENr8RCUGMHellqTJ9UrlCPZOFEdo8W4UlgD2JooTtHg3CssK9rqJCFp8NypXMHillqTJLVSOYPBEcYAW/0LlBQzeU5ygxbspSAzyJjpDk1+oTGBvN2ozNHmnksSghVqSNrdILmDvRC0JNPl+lfT27Cleoc3vqSQw15voNzT6RXIxx43aBK1+lQzWdKM2QavvlPbWXKhN0OyTBoydqE3Q7vcSMmaiNkHDz5Jsywu1CbwBmvKD2gSeZWXdETzLWnR+g2dZC2uWFVp/UCEz1sKaJND8RWWxYi2smQUcoApXG9bCmucKHjCrBBN+seoIPvCsMlrwhzUpgBOMKmjAiTVRwAtWFa67+2DNERwhqow7q8iKFMATBhXc10qseK7gC0mDw55+Fd5OAbxhVMH91A9WPFfwh6jB414k83YK4BF7lUX28afw5pLAKU4anPcgyNsvAm7xqsEf7/en8GYM4Bhr1uDTm4XMmzGAb6xZg0/vJMibMYB7rDcNPr1N/eDNGMBFJg2+yVvIZ+GtGMBLBlJgij8XkLeWVMFR1qTAfJEf6U6Ft2IAbylXBeZLrxVOyFtxquAx5arAnKewpYbpVngrThXcpsS8jZkLzmmKMcb0PWfizTTHCs5TJtz2kzTHDnxoDWcsP1byPIUKzrQP0/mGtI3ybU5x6MC3dl0fHnZdB4f/D/8f/j/8f/j/8P/h/8P/h/8P/x/+PyoM;" vertex="1" parent="1">
          <mxGeometry x="189" y="645" width="47.5" height="30" as="geometry" />
        </mxCell>
      </root>
    </mxGraphModel>
  </diagram>
</mxfile>
